<svg width="16" height="17" viewBox="0 0 16 17" fill="none" xmlns="http://www.w3.org/2000/svg">
<path d="M12.9 7.09307C12.4467 4.79307 10.4267 3.06641 8 3.06641C6.07333 3.06641 4.40667 4.15974 3.57333 5.75974C1.56667 5.97307 0 7.66641 0 9.73307C0 11.9397 1.79333 13.7331 4 13.7331H12.6667C14.5067 13.7331 16 12.2397 16 10.3997C16 8.63974 14.6333 7.21307 12.9 7.09307ZM12.6667 12.3997H4C2.52667 12.3997 1.33333 11.2064 1.33333 9.73307C1.33333 8.25974 2.52667 7.06641 4 7.06641C5.47333 7.06641 6.66667 8.25974 6.66667 9.73307H8C8 7.89307 6.76 6.34641 5.06667 5.87974C5.74 4.98641 6.8 4.39974 8 4.39974C10.02 4.39974 11.6667 6.04641 11.6667 8.06641V8.39974H12.6667C13.7667 8.39974 14.6667 9.29974 14.6667 10.3997C14.6667 11.4997 13.7667 12.3997 12.6667 12.3997Z" fill="#0984C0"/>
</svg>
