<svg width="16" height="16" viewBox="0 0 16 16" fill="none" xmlns="http://www.w3.org/2000/svg">
<path d="M4.50663 3.2267L3.30663 2.03337L2.36663 2.97337L3.55996 4.1667L4.50663 3.2267ZM0.666626 7.00003H2.66663V8.33337H0.666626V7.00003ZM7.33329 0.366699H8.66663V2.33337H7.33329V0.366699ZM12.6933 2.03003L13.632 2.96803L12.4386 4.16137L11.5006 3.2227L12.6933 2.03003ZM11.4933 12.1067L12.6866 13.3067L13.6266 12.3667L12.4266 11.1734L11.4933 12.1067ZM13.3333 7.00003H15.3333V8.33337H13.3333V7.00003ZM7.99996 3.6667C5.79329 3.6667 3.99996 5.46003 3.99996 7.6667C3.99996 9.87337 5.79329 11.6667 7.99996 11.6667C10.2066 11.6667 12 9.87337 12 7.6667C12 5.46003 10.2066 3.6667 7.99996 3.6667ZM7.99996 10.3334C6.52663 10.3334 5.33329 9.14003 5.33329 7.6667C5.33329 6.19337 6.52663 5.00003 7.99996 5.00003C9.47329 5.00003 10.6666 6.19337 10.6666 7.6667C10.6666 9.14003 9.47329 10.3334 7.99996 10.3334ZM7.33329 13H8.66663V14.9667H7.33329V13ZM2.36663 12.36L3.30663 13.3L4.49996 12.1L3.55996 11.16L2.36663 12.36Z" fill="#0984C0"/>
</svg>
