<svg width="17" height="16" viewBox="0 0 17 16" fill="none" xmlns="http://www.w3.org/2000/svg">
<path d="M8.59998 0C11.4171 0 13.0148 1.79886 13.2468 3.97029H13.3177C15.1303 3.97029 16.6 5.384 16.6 7.128C16.6 8.872 15.1303 10.2857 13.3177 10.2857L12.5143 10.2846V10.2857H12.48L11.3863 12.2754C11.3118 12.4054 11.1892 12.501 11.0449 12.5415C10.9007 12.582 10.7463 12.5642 10.615 12.492C10.4837 12.4197 10.3861 12.2988 10.3431 12.1553C10.3001 12.0118 10.3152 11.8571 10.3851 11.7246L11.1771 10.2846H9.0994V10.2857H9.05255L7.95769 12.2754C7.88319 12.4054 7.76062 12.501 7.61636 12.5415C7.4721 12.582 7.3177 12.5642 7.18642 12.492C7.05514 12.4197 6.95749 12.2988 6.91449 12.1553C6.8715 12.0118 6.8866 11.8571 6.95655 11.7246L7.74855 10.2846H5.66512V10.2857H5.62398L4.52912 12.2754C4.45462 12.4054 4.33204 12.501 4.18778 12.5415C4.04352 12.582 3.88913 12.5642 3.75785 12.492C3.62657 12.4197 3.52892 12.2988 3.48592 12.1553C3.44292 12.0118 3.45803 11.8571 3.52798 11.7246L4.31998 10.2846L3.88226 10.2857C2.06969 10.2857 0.599976 8.872 0.599976 7.128C0.599976 5.448 1.96226 4.07543 3.68226 3.976L3.95312 3.97029C4.1874 1.784 5.78283 0 8.59998 0ZM5.29712 9.14286H13.3783C14.528 9.14286 15.4571 8.25257 15.4571 7.15428C15.4571 6.05714 14.5268 5.16686 13.3794 5.16686H12.7508C12.4194 5.16686 12.128 4.91771 12.128 4.6C12.128 2.56914 10.4857 1.14286 8.59998 1.14286C6.71426 1.14286 5.07198 2.59429 5.07198 4.6C5.07198 4.91771 4.78169 5.16686 4.44912 5.16686H3.82055C2.67312 5.16686 1.74283 6.05714 1.74283 7.15543C1.74283 8.25143 2.67312 9.14286 3.82055 9.14286H5.2754C5.28302 9.14273 5.29064 9.14273 5.29826 9.14286H5.29712Z" fill="#0984C0"/>
<path d="M6.02628 12.9326C6.1578 13.0078 6.25407 13.1322 6.29393 13.2783C6.33379 13.4245 6.31398 13.5805 6.23886 13.7121L5.096 15.7121C5.01892 15.8398 4.89493 15.9324 4.75053 15.9699C4.60612 16.0075 4.45275 15.9871 4.3232 15.913C4.19365 15.839 4.09819 15.7172 4.05723 15.5738C4.01627 15.4303 4.03306 15.2765 4.104 15.1452L5.24686 13.1452C5.32206 13.0137 5.4464 12.9174 5.59256 12.8776C5.73872 12.8377 5.89473 12.8575 6.02628 12.9326V12.9326Z" fill="#0984C0"/>
<path d="M9.66745 13.7118C9.73839 13.5805 9.75517 13.4267 9.71421 13.2832C9.67325 13.1397 9.57779 13.018 9.44824 12.9439C9.31869 12.8699 9.16532 12.8495 9.02092 12.887C8.87651 12.9246 8.75252 13.0171 8.67545 13.1449L7.53259 15.1449C7.46165 15.2762 7.44486 15.43 7.48582 15.5735C7.52678 15.7169 7.62224 15.8387 7.75179 15.9127C7.88134 15.9868 8.03471 16.0072 8.17912 15.9696C8.32352 15.9321 8.44751 15.8395 8.52459 15.7118L9.66745 13.7118V13.7118Z" fill="#0984C0"/>
</svg>
