<svg width="421" height="391" viewBox="0 0 421 391" fill="none" xmlns="http://www.w3.org/2000/svg">
<path d="M198.81 390.05H5.71C4.19561 390.05 2.74325 389.448 1.67242 388.378C0.601588 387.307 0 385.854 0 384.34V5.66C0.0131853 4.15429 0.620588 2.71475 1.68999 1.65471C2.7594 0.594662 4.20424 -5.77259e-05 5.71 4.20255e-09H198.81C199.56 4.20255e-09 200.302 0.147692 200.995 0.434647C201.688 0.721601 202.317 1.1422 202.848 1.67242C203.378 2.20264 203.798 2.83211 204.085 3.52488C204.372 4.21765 204.52 4.96015 204.52 5.71V384.34C204.52 385.09 204.372 385.832 204.085 386.525C203.798 387.218 203.378 387.847 202.848 388.378C202.317 388.908 201.688 389.328 200.995 389.615C200.302 389.902 199.56 390.05 198.81 390.05V390.05ZM5.71 0.200001C4.26273 0.202644 2.87549 0.77874 1.85212 1.80212C0.82874 2.82549 0.252643 4.21273 0.25 5.66V384.34C0.252643 385.787 0.82874 387.174 1.85212 388.198C2.87549 389.221 4.26273 389.797 5.71 389.8H198.81C200.257 389.797 201.645 389.221 202.668 388.198C203.691 387.174 204.267 385.787 204.27 384.34V5.66C204.267 4.21273 203.691 2.82549 202.668 1.80212C201.645 0.77874 200.257 0.202644 198.81 0.200001H5.71Z" fill="#EBEBEB"/>
<path d="M415.11 390.05H222.01C220.496 390.05 219.043 389.448 217.972 388.378C216.902 387.307 216.3 385.854 216.3 384.34V5.66C216.313 4.15429 216.921 2.71475 217.99 1.65471C219.059 0.594662 220.504 -5.77259e-05 222.01 4.20255e-09H415.11C416.624 4.20256e-09 418.077 0.601588 419.148 1.67242C420.218 2.74325 420.82 4.19561 420.82 5.71V384.34C420.82 385.09 420.672 385.832 420.385 386.525C420.098 387.218 419.678 387.847 419.148 388.378C418.617 388.908 417.988 389.328 417.295 389.615C416.602 389.902 415.86 390.05 415.11 390.05V390.05ZM222.01 0.200001C220.563 0.202644 219.176 0.77874 218.152 1.80212C217.129 2.82549 216.553 4.21273 216.55 5.66V384.34C216.553 385.787 217.129 387.174 218.152 388.198C219.176 389.221 220.563 389.797 222.01 389.8H415.11C416.557 389.797 417.945 389.221 418.968 388.198C419.991 387.174 420.567 385.787 420.57 384.34V5.66C420.567 4.21273 419.991 2.82549 418.968 1.80212C417.945 0.77874 416.557 0.202644 415.11 0.200001H222.01Z" fill="#EBEBEB"/>
<path d="M73.46 113.25L75.08 116.52L78.7 117.05L76.08 119.6L76.7 123.2L73.46 121.5L70.23 123.2L70.85 119.6L68.23 117.05L71.85 116.52L73.46 113.25Z" fill="#EBEBEB"/>
<path d="M397.11 267.48L398.73 270.76L402.35 271.29L399.73 273.83L400.35 277.44L397.11 275.74L393.88 277.44L394.5 273.83L391.88 271.29L395.5 270.76L397.11 267.48Z" fill="#F5F5F5"/>
<path d="M333.01 362.57L334.63 365.84L338.24 366.37L335.62 368.92L336.24 372.52L333.01 370.82L329.78 372.52L330.39 368.92L327.78 366.37L331.39 365.84L333.01 362.57Z" fill="#F5F5F5"/>
<path d="M186.35 55.15L186.95 56.37L188.3 56.57C188.375 56.5799 188.446 56.611 188.505 56.6597C188.563 56.7084 188.606 56.7727 188.629 56.8451C188.652 56.9175 188.654 56.995 188.635 57.0684C188.615 57.1419 188.576 57.2084 188.52 57.26L187.52 58.21L187.75 59.55C187.762 59.6246 187.753 59.701 187.724 59.7708C187.695 59.8405 187.647 59.901 187.586 59.9455C187.525 59.9899 187.453 60.0167 187.378 60.0228C187.303 60.0289 187.227 60.0141 187.16 59.98L185.96 59.34L184.76 59.98C184.693 60.0141 184.617 60.0289 184.542 60.0228C184.467 60.0167 184.394 59.9899 184.333 59.9455C184.272 59.901 184.225 59.8405 184.196 59.7708C184.167 59.701 184.158 59.6246 184.17 59.55L184.39 58.21L183.39 57.26C183.334 57.2077 183.294 57.1404 183.275 57.0662C183.256 56.992 183.259 56.9139 183.283 56.8412C183.308 56.7685 183.352 56.7043 183.412 56.6562C183.472 56.6082 183.544 56.5782 183.62 56.57L184.96 56.37L185.56 55.15C185.584 55.0637 185.636 54.9876 185.707 54.9334C185.778 54.8792 185.865 54.8499 185.955 54.8499C186.044 54.8499 186.132 54.8792 186.203 54.9334C186.274 54.9876 186.326 55.0637 186.35 55.15V55.15Z" fill="#EBEBEB"/>
<path d="M21.19 347L21.79 348.21L23.13 348.41C23.2061 348.42 23.2777 348.452 23.3367 348.501C23.3956 348.55 23.4396 348.615 23.4636 348.688C23.4876 348.761 23.4906 348.839 23.4722 348.914C23.4539 348.989 23.415 349.056 23.36 349.11L22.36 350.05L22.59 351.39C22.6018 351.465 22.5928 351.541 22.564 351.611C22.5351 351.681 22.4876 351.741 22.4265 351.785C22.3655 351.83 22.2934 351.857 22.2181 351.863C22.1429 351.869 22.0674 351.854 22 351.82L20.8 351.19L19.6 351.82C19.5326 351.854 19.4572 351.869 19.3819 351.863C19.3066 351.857 19.2345 351.83 19.1735 351.785C19.1125 351.741 19.0649 351.681 19.0361 351.611C19.0072 351.541 18.9982 351.465 19.01 351.39L19.24 350.05L18.24 349.11C18.1852 349.057 18.1461 348.99 18.1273 348.916C18.1085 348.842 18.1106 348.765 18.1335 348.692C18.1563 348.619 18.199 348.554 18.2567 348.505C18.3143 348.455 18.3848 348.422 18.46 348.41L19.8 348.21L20.41 347C20.4367 346.918 20.4889 346.846 20.5589 346.795C20.629 346.744 20.7134 346.716 20.8 346.716C20.8866 346.716 20.971 346.744 21.0411 346.795C21.1112 346.846 21.1633 346.918 21.19 347V347Z" fill="#F5F5F5"/>
<path d="M48.16 42.3L48.76 43.52L50.11 43.71C50.1852 43.722 50.2557 43.7548 50.3133 43.8046C50.371 43.8544 50.4137 43.9193 50.4365 43.992C50.4594 44.0646 50.4615 44.1423 50.4427 44.2161C50.4239 44.29 50.3848 44.3571 50.33 44.41L49.33 45.41L49.56 46.74C49.576 46.8155 49.5698 46.894 49.5421 46.9661C49.5145 47.0381 49.4666 47.1006 49.4043 47.1461C49.3419 47.1915 49.2677 47.218 49.1907 47.2222C49.1136 47.2265 49.037 47.2083 48.97 47.17L47.77 46.54L46.57 47.17C46.503 47.2083 46.4264 47.2265 46.3493 47.2222C46.2723 47.218 46.1981 47.1915 46.1357 47.1461C46.0734 47.1006 46.0255 47.0381 45.9978 46.9661C45.9702 46.894 45.964 46.8155 45.98 46.74L46.2 45.41L45.2 44.41C45.145 44.3564 45.1061 44.2885 45.0878 44.2139C45.0694 44.1394 45.0724 44.0611 45.0964 43.9882C45.1204 43.9152 45.1644 43.8505 45.2233 43.8013C45.2823 43.7521 45.3539 43.7205 45.43 43.71L46.77 43.52L47.41 42.3C47.4421 42.2273 47.4947 42.1656 47.5612 42.1222C47.6278 42.0788 47.7055 42.0558 47.785 42.0558C47.8644 42.0558 47.9422 42.0788 48.0088 42.1222C48.0753 42.1656 48.1279 42.2273 48.16 42.3Z" fill="#EBEBEB"/>
<path d="M46.54 283.32C46.5419 283.583 46.4656 283.842 46.3207 284.062C46.1758 284.282 45.9687 284.454 45.7259 284.556C45.4831 284.658 45.2153 284.686 44.9567 284.636C44.698 284.585 44.4601 284.46 44.2731 284.274C44.0861 284.088 43.9584 283.851 43.9063 283.593C43.8542 283.335 43.8799 283.067 43.9803 282.823C44.0806 282.58 44.2511 282.371 44.47 282.225C44.689 282.078 44.9465 282 45.21 282C45.561 282 45.8978 282.139 46.1469 282.386C46.396 282.633 46.5373 282.969 46.54 283.32V283.32Z" fill="#EBEBEB"/>
<path d="M236.08 116.89C236.082 117.153 236.006 117.412 235.861 117.632C235.716 117.852 235.509 118.024 235.266 118.126C235.023 118.228 234.755 118.256 234.497 118.206C234.238 118.155 234 118.03 233.813 117.844C233.626 117.658 233.498 117.421 233.446 117.163C233.394 116.905 233.42 116.637 233.52 116.393C233.621 116.15 233.791 115.941 234.01 115.795C234.229 115.648 234.486 115.57 234.75 115.57C234.924 115.569 235.097 115.602 235.258 115.668C235.419 115.733 235.566 115.83 235.69 115.953C235.813 116.076 235.911 116.222 235.978 116.383C236.045 116.543 236.08 116.716 236.08 116.89V116.89Z" fill="#EBEBEB"/>
<path d="M167.12 43.4C167.12 43.6631 167.042 43.9202 166.896 44.1389C166.75 44.3576 166.542 44.5281 166.299 44.6288C166.056 44.7294 165.788 44.7558 165.53 44.7045C165.272 44.6531 165.036 44.5265 164.85 44.3405C164.663 44.1545 164.537 43.9175 164.486 43.6595C164.434 43.4015 164.461 43.1341 164.561 42.891C164.662 42.648 164.832 42.4403 165.051 42.2942C165.27 42.148 165.527 42.07 165.79 42.07C166.142 42.0726 166.479 42.2136 166.728 42.4624C166.976 42.7113 167.117 43.0481 167.12 43.4V43.4Z" fill="#F5F5F5"/>
<path d="M169.226 367.544C173.177 366.611 175.624 362.653 174.691 358.702C173.759 354.751 169.8 352.304 165.85 353.237C161.899 354.169 159.452 358.128 160.384 362.079C161.317 366.029 165.276 368.476 169.226 367.544Z" fill="#F0F0F0"/>
<path d="M165.01 356.09C163.504 356.087 162.037 356.563 160.82 357.45C160.199 358.876 160.046 360.462 160.384 361.98C160.723 363.498 161.534 364.869 162.702 365.896C163.871 366.923 165.335 367.552 166.883 367.693C168.432 367.834 169.986 367.479 171.32 366.68C171.32 366.68 171.32 366.68 171.32 366.68C171.911 365.588 172.207 364.361 172.181 363.119C172.155 361.877 171.807 360.664 171.171 359.597C170.535 358.531 169.632 357.648 168.552 357.035C167.473 356.422 166.252 356.1 165.01 356.1V356.09Z" fill="#E6E6E6"/>
<path d="M108.09 232.64H47.24V205.17L108.09 132.83H137.21V206.73H152.3V232.64H137.21V255.12H108.09V232.64ZM108.09 206.73V168.89L75.93 206.73H108.09Z" fill="#0984C0"/>
<path d="M162.71 194.51C162.71 171.65 166.823 155.65 175.05 146.51C183.277 137.37 195.813 132.803 212.66 132.81C220.747 132.81 227.39 133.81 232.59 135.81C237.314 137.512 241.639 140.163 245.3 143.6C248.386 146.546 250.999 149.949 253.05 153.69C255.079 157.596 256.608 161.742 257.6 166.03C259.861 175.191 260.989 184.594 260.96 194.03C260.96 215.843 257.27 231.807 249.89 241.92C242.51 252.033 229.8 257.093 211.76 257.1C201.64 257.1 193.463 255.487 187.23 252.26C180.947 248.981 175.654 244.082 171.9 238.07C169 233.643 166.743 227.587 165.13 219.9C163.455 211.542 162.644 203.034 162.71 194.51V194.51ZM195.85 194.59C195.85 209.923 197.2 220.38 199.9 225.96C202.6 231.54 206.523 234.343 211.67 234.37C213.303 234.388 214.924 234.082 216.438 233.469C217.952 232.856 219.329 231.949 220.49 230.8C222.983 228.42 224.817 224.66 225.99 219.52C227.163 214.38 227.75 206.38 227.75 195.52C227.75 179.56 226.397 168.83 223.69 163.33C220.983 157.83 216.923 155.083 211.51 155.09C205.99 155.09 201.99 157.893 199.51 163.5C197.03 169.107 195.81 179.47 195.85 194.59Z" fill="#0984C0"/>
<path d="M332.15 232.64H271.3V205.17L332.15 132.83H361.27V206.73H376.41V232.64H361.27V255.12H332.15V232.64ZM332.15 206.73V168.89L300 206.73H332.15Z" fill="#0984C0"/>
<g opacity="0.3">
<path opacity="0.3" d="M161.41 90.62C161.41 90.9903 161.3 91.3522 161.094 91.6599C160.888 91.9677 160.596 92.2073 160.253 92.3486C159.911 92.4898 159.535 92.5263 159.172 92.4533C158.809 92.3803 158.475 92.2012 158.214 91.9387C157.953 91.6762 157.776 91.342 157.705 90.9786C157.634 90.6152 157.672 90.2389 157.815 89.8974C157.958 89.5559 158.2 89.2645 158.509 89.0603C158.817 88.856 159.18 88.748 159.55 88.75C159.795 88.75 160.038 88.7984 160.264 88.8925C160.491 88.9866 160.696 89.1245 160.869 89.2983C161.042 89.4721 161.179 89.6783 161.271 89.9051C161.364 90.132 161.411 90.3749 161.41 90.62V90.62Z" fill="#0984C0"/>
<path opacity="0.3" d="M33.3801 162.45C34.1091 162.45 34.7001 161.859 34.7001 161.13C34.7001 160.401 34.1091 159.81 33.3801 159.81C32.651 159.81 32.0601 160.401 32.0601 161.13C32.0601 161.859 32.651 162.45 33.3801 162.45Z" fill="#0984C0"/>
<path opacity="0.3" d="M251.46 355.22C252.504 355.22 253.35 354.374 253.35 353.33C253.35 352.286 252.504 351.44 251.46 351.44C250.416 351.44 249.57 352.286 249.57 353.33C249.57 354.374 250.416 355.22 251.46 355.22Z" fill="#0984C0"/>
<path opacity="0.3" d="M296.91 278.32C297.639 278.32 298.23 277.729 298.23 277C298.23 276.271 297.639 275.68 296.91 275.68C296.181 275.68 295.59 276.271 295.59 277C295.59 277.729 296.181 278.32 296.91 278.32Z" fill="#0984C0"/>
<path opacity="0.3" d="M384.58 40.62C384.58 40.8811 384.503 41.1363 384.357 41.3533C384.212 41.5704 384.006 41.7396 383.765 41.8395C383.524 41.9394 383.258 41.9656 383.002 41.9146C382.746 41.8637 382.511 41.738 382.327 41.5534C382.142 41.3688 382.016 41.1336 381.965 40.8775C381.914 40.6214 381.941 40.356 382.04 40.1148C382.14 39.8736 382.31 39.6675 382.527 39.5224C382.744 39.3774 382.999 39.3 383.26 39.3C383.61 39.3 383.946 39.4391 384.193 39.6866C384.441 39.9342 384.58 40.2699 384.58 40.62V40.62Z" fill="#0984C0"/>
<path opacity="0.3" d="M133.16 14C133.16 14.2611 133.083 14.5163 132.938 14.7333C132.793 14.9504 132.586 15.1196 132.345 15.2195C132.104 15.3194 131.839 15.3456 131.583 15.2946C131.326 15.2437 131.091 15.118 130.907 14.9334C130.722 14.7488 130.596 14.5136 130.545 14.2575C130.494 14.0015 130.521 13.736 130.621 13.4949C130.72 13.2537 130.89 13.0475 131.107 12.9025C131.324 12.7574 131.579 12.68 131.84 12.68C132.189 12.6826 132.524 12.8225 132.771 13.0695C133.017 13.3165 133.157 13.6507 133.16 14V14Z" fill="#0984C0"/>
<path opacity="0.3" d="M238.11 83.26C238.839 83.26 239.43 82.669 239.43 81.94C239.43 81.211 238.839 80.62 238.11 80.62C237.381 80.62 236.79 81.211 236.79 81.94C236.79 82.669 237.381 83.26 238.11 83.26Z" fill="#0984C0"/>
</g>
<path d="M101.64 83.27C113.741 83.27 123.55 73.4605 123.55 61.36C123.55 49.2594 113.741 39.45 101.64 39.45C89.5395 39.45 79.7301 49.2594 79.7301 61.36C79.7301 73.4605 89.5395 83.27 101.64 83.27Z" fill="#0984C0"/>
<path opacity="0.7" d="M101.64 83.27C113.741 83.27 123.55 73.4605 123.55 61.36C123.55 49.2594 113.741 39.45 101.64 39.45C89.5395 39.45 79.7301 49.2594 79.7301 61.36C79.7301 73.4605 89.5395 83.27 101.64 83.27Z" fill="white"/>
<path opacity="0.2" d="M94.0901 44.83C91.1062 44.8209 88.1521 45.4232 85.4101 46.6C82.0401 50.3039 80.0398 55.05 79.7422 60.0487C79.4445 65.0474 80.8673 69.9974 83.7739 74.0751C86.6805 78.1528 90.8957 81.1123 95.7181 82.4613C100.541 83.8104 105.68 83.4676 110.28 81.49V81.49C113.132 78.3466 115.011 74.4427 115.687 70.2524C116.363 66.062 115.808 61.7654 114.09 57.8843C112.371 54.0033 109.562 50.7047 106.005 48.3891C102.448 46.0735 98.2947 44.8406 94.0501 44.84L94.0901 44.83Z" fill="#0984C0"/>
<path opacity="0.2" d="M91.91 50.62C91.91 51.0156 91.7927 51.4022 91.573 51.7311C91.3532 52.06 91.0409 52.3164 90.6754 52.4678C90.3099 52.6191 89.9078 52.6587 89.5199 52.5816C89.1319 52.5044 88.7755 52.3139 88.4958 52.0342C88.2161 51.7545 88.0256 51.3981 87.9485 51.0102C87.8713 50.6222 87.9109 50.2201 88.0623 49.8546C88.2137 49.4892 88.47 49.1768 88.7989 48.9571C89.1278 48.7373 89.5145 48.62 89.91 48.62C90.4405 48.62 90.9492 48.8307 91.3242 49.2058C91.6993 49.5809 91.91 50.0896 91.91 50.62Z" fill="#0984C0"/>
<path opacity="0.2" d="M115.47 48.62C115.47 49.0156 115.353 49.4022 115.133 49.7311C114.913 50.06 114.601 50.3164 114.235 50.4678C113.87 50.6191 113.468 50.6587 113.08 50.5816C112.692 50.5044 112.336 50.3139 112.056 50.0342C111.776 49.7545 111.586 49.3981 111.509 49.0102C111.431 48.6222 111.471 48.2201 111.622 47.8546C111.774 47.4892 112.03 47.1768 112.359 46.9571C112.688 46.7373 113.075 46.62 113.47 46.62C114.001 46.62 114.509 46.8307 114.884 47.2058C115.259 47.5809 115.47 48.0896 115.47 48.62Z" fill="#0984C0"/>
<path opacity="0.2" d="M111.47 62.9C111.47 63.5487 111.278 64.1829 110.917 64.7223C110.557 65.2617 110.045 65.6821 109.445 65.9303C108.846 66.1786 108.186 66.2435 107.55 66.117C106.914 65.9904 106.329 65.678 105.871 65.2193C105.412 64.7606 105.1 64.1761 104.973 63.5399C104.846 62.9036 104.911 62.2441 105.16 61.6448C105.408 61.0454 105.828 60.5332 106.368 60.1728C106.907 59.8124 107.541 59.62 108.19 59.62C109.06 59.62 109.894 59.9656 110.509 60.5807C111.124 61.1958 111.47 62.0301 111.47 62.9V62.9Z" fill="#0984C0"/>
<path opacity="0.2" d="M101.05 72.25C101.05 73.1163 100.793 73.9631 100.312 74.6834C99.8306 75.4037 99.1465 75.9651 98.3462 76.2966C97.5459 76.6281 96.6652 76.7148 95.8155 76.5458C94.9659 76.3768 94.1855 75.9597 93.5729 75.3471C92.9604 74.7346 92.5432 73.9541 92.3742 73.1045C92.2052 72.2548 92.2919 71.3742 92.6235 70.5738C92.955 69.7735 93.5164 69.0894 94.2366 68.6082C94.9569 68.1269 95.8038 67.87 96.67 67.87C97.8317 67.87 98.9458 68.3315 99.7672 69.1529C100.589 69.9743 101.05 71.0883 101.05 72.25V72.25Z" fill="#0984C0"/>
<path d="M361.31 325.646C363.749 315.31 357.348 304.953 347.011 302.513C336.675 300.073 326.318 306.475 323.878 316.811C321.439 327.148 327.84 337.505 338.177 339.945C348.513 342.384 358.87 335.982 361.31 325.646Z" fill="#0984C0"/>
<path opacity="0.3" d="M361.31 325.646C363.749 315.31 357.348 304.953 347.011 302.513C336.675 300.073 326.318 306.475 323.878 316.811C321.439 327.148 327.84 337.505 338.177 339.945C348.513 342.384 358.87 335.982 361.31 325.646Z" fill="white"/>
<path opacity="0.4" d="M354.74 306.34C350.477 305.053 345.9 305.287 341.79 307C337.68 308.714 334.292 311.802 332.206 315.735C330.12 319.669 329.465 324.206 330.352 328.569C331.239 332.933 333.613 336.853 337.07 339.66C338.863 340.205 340.726 340.481 342.6 340.48C346.57 340.479 350.442 339.25 353.686 336.96C356.929 334.671 359.384 331.433 360.714 327.693C362.044 323.952 362.184 319.892 361.114 316.069C360.045 312.246 357.818 308.847 354.74 306.34V306.34Z" fill="#0984C0"/>
<path d="M324.24 327C303.71 336.66 319.02 344.11 347.95 333.71C374.74 324.08 384.95 311.94 360.95 315.71C362.24 320.76 328.69 333.83 324.24 327Z" fill="#0984C0"/>
<path opacity="0.2" d="M354.51 132.83C327.62 151 292.81 175 283.2 232.64H281.15C290.5 175.64 324.04 151.07 350.94 132.83H354.51Z" fill="black"/>
<path d="M215.41 313.27C198.41 313.27 181.6 305.6 173.41 293.08C168.36 285.34 162.49 269.13 179.97 247.5L181.52 248.76C169.16 264.06 166.88 279.41 175.09 291.99C185.09 307.29 208.68 314.99 228.82 309.51C249.45 303.9 261.97 285.96 263.18 260.29C267.31 172.48 313.96 145.43 348.02 125.68C369.19 113.41 384.48 104.55 381.12 85.84C380.65 83.25 379.62 81.46 377.95 80.36C373.6 77.49 365.1 79.48 355.26 81.77C335.95 86.27 309.51 92.43 293.76 65.64L295.49 64.64C310.49 90.17 335.06 84.44 354.81 79.84C365.1 77.45 373.98 75.38 379.05 78.71C381.2 80.12 382.52 82.35 383.05 85.51C386.66 105.59 370.05 115.23 349 127.43C315.33 146.95 269.23 173.68 265.15 260.43C263.89 287.03 250.83 305.64 229.31 311.49C224.776 312.697 220.102 313.296 215.41 313.27Z" fill="#0984C0"/>
<path opacity="0.2" d="M215.41 313.27C198.41 313.27 181.6 305.6 173.41 293.08C168.36 285.34 162.49 269.13 179.97 247.5L181.52 248.76C169.16 264.06 166.88 279.41 175.09 291.99C185.09 307.29 208.68 314.99 228.82 309.51C249.45 303.9 261.97 285.96 263.18 260.29C267.31 172.48 313.96 145.43 348.02 125.68C369.19 113.41 384.48 104.55 381.12 85.84C380.65 83.25 379.62 81.46 377.95 80.36C373.6 77.49 365.1 79.48 355.26 81.77C335.95 86.27 309.51 92.43 293.76 65.64L295.49 64.64C310.49 90.17 335.06 84.44 354.81 79.84C365.1 77.45 373.98 75.38 379.05 78.71C381.2 80.12 382.52 82.35 383.05 85.51C386.66 105.59 370.05 115.23 349 127.43C315.33 146.95 269.23 173.68 265.15 260.43C263.89 287.03 250.83 305.64 229.31 311.49C224.776 312.697 220.102 313.296 215.41 313.27Z" fill="white"/>
<path d="M273.17 42C277.778 42.0266 282.355 42.7446 286.75 44.13C286.75 44.13 297.75 62.9 299.05 67.2C298.59 71.44 291.44 78.39 291.44 78.39L273.17 42Z" fill="#0984C0"/>
<path opacity="0.3" d="M273.17 42C277.778 42.0266 282.355 42.7446 286.75 44.13C286.75 44.13 297.75 62.9 299.05 67.2C298.59 71.44 291.44 78.39 291.44 78.39L273.17 42Z" fill="white"/>
<path d="M305.75 133.13C301.514 127.95 297.651 122.477 294.19 116.75C293.35 115.303 292.553 113.83 291.8 112.33C291.37 111.48 290.96 110.63 290.56 109.77C290.035 108.933 289.628 108.028 289.35 107.08C288.15 94.41 292.49 85.08 288.35 74.91L271.87 81.35C271.87 81.35 273.27 99.47 276.47 110.35C278.47 117.08 282.95 122.9 287.28 128.29C288.63 129.97 289.93 131.7 291.28 133.39C292.63 135.08 293.99 136.45 295.28 138.04C297.23 140.45 297.87 142.76 296.4 145.6L296.15 146.05C295.73 146.79 297.69 147.63 298.93 146.05C300.93 143.47 300.65 143.63 302.39 141.43C303.45 140.1 304.66 138.65 305.71 137.43C306.217 136.83 306.498 136.072 306.505 135.287C306.512 134.502 306.245 133.739 305.75 133.13V133.13Z" fill="#0984C0"/>
<path opacity="0.7" d="M305.75 133.13C301.514 127.95 297.651 122.477 294.19 116.75C293.35 115.303 292.553 113.83 291.8 112.33C291.37 111.48 290.96 110.63 290.56 109.77C290.035 108.933 289.628 108.028 289.35 107.08C288.15 94.41 292.49 85.08 288.35 74.91L271.87 81.35C271.87 81.35 273.27 99.47 276.47 110.35C278.47 117.08 282.95 122.9 287.28 128.29C288.63 129.97 289.93 131.7 291.28 133.39C292.63 135.08 293.99 136.45 295.28 138.04C297.23 140.45 297.87 142.76 296.4 145.6L296.15 146.05C295.73 146.79 297.69 147.63 298.93 146.05C300.93 143.47 300.65 143.63 302.39 141.43C303.45 140.1 304.66 138.65 305.71 137.43C306.217 136.83 306.498 136.072 306.505 135.287C306.512 134.502 306.245 133.739 305.75 133.13V133.13Z" fill="white"/>
<path opacity="0.3" d="M301.72 127.92C299.105 130.723 296.202 133.244 293.06 135.44C293.49 135.92 293.91 136.44 294.34 136.9C297.486 134.775 300.343 132.25 302.84 129.39L301.72 127.92Z" fill="#0984C0"/>
<path opacity="0.3" d="M305.75 133.13L305.63 132.99C304.861 133.873 304.413 134.99 304.36 136.16C304.296 136.963 304.426 137.769 304.74 138.51L305.69 137.38C306.187 136.786 306.464 136.04 306.475 135.266C306.485 134.492 306.23 133.738 305.75 133.13V133.13Z" fill="#0984C0"/>
<path d="M269.25 54C267.463 56.6751 265.32 59.0941 262.88 61.19C261.527 62.3564 260.044 63.363 258.46 64.19C257.628 64.6163 256.766 64.9806 255.88 65.28L255.2 65.5L254.98 65.56L254.51 65.69C254.221 65.7587 253.926 65.8055 253.63 65.83C252.786 65.8945 251.938 65.8168 251.12 65.6C250.089 65.3073 249.1 64.8803 248.18 64.33C247.44 63.8972 246.722 63.4266 246.03 62.92C244.78 61.99 243.584 60.9884 242.45 59.92C240.263 57.8475 238.255 55.5927 236.45 53.18C236.102 52.71 235.93 52.1334 235.962 51.5496C235.994 50.9659 236.229 50.4117 236.626 49.9826C237.023 49.5535 237.557 49.2765 238.137 49.1994C238.716 49.1222 239.305 49.2498 239.8 49.56H239.88C242.24 51.06 244.62 52.64 246.94 54.05C248.12 54.74 249.26 55.44 250.39 55.98C250.906 56.2501 251.437 56.4905 251.98 56.7C252.318 56.8494 252.681 56.9375 253.05 56.96C253.11 56.96 253.05 56.89 252.68 56.9C252.563 56.893 252.447 56.893 252.33 56.9L252.11 56.95L252.44 56.78C252.884 56.5409 253.315 56.2772 253.73 55.99C254.625 55.3591 255.461 54.6497 256.23 53.87C257.977 52.0392 259.613 50.1058 261.13 48.08C261.961 47.1503 263.109 46.5646 264.35 46.438C265.591 46.3113 266.834 46.6527 267.835 47.3953C268.837 48.1378 269.525 49.228 269.765 50.4517C270.004 51.6755 269.778 52.9446 269.13 54.01L269.25 54Z" fill="#0984C0"/>
<path opacity="0.7" d="M269.25 54C267.463 56.6751 265.32 59.0941 262.88 61.19C261.527 62.3564 260.044 63.363 258.46 64.19C257.628 64.6163 256.766 64.9806 255.88 65.28L255.2 65.5L254.98 65.56L254.51 65.69C254.221 65.7587 253.926 65.8055 253.63 65.83C252.786 65.8945 251.938 65.8168 251.12 65.6C250.089 65.3073 249.1 64.8803 248.18 64.33C247.44 63.8972 246.722 63.4266 246.03 62.92C244.78 61.99 243.584 60.9884 242.45 59.92C240.263 57.8475 238.255 55.5927 236.45 53.18C236.102 52.71 235.93 52.1334 235.962 51.5496C235.994 50.9659 236.229 50.4117 236.626 49.9826C237.023 49.5535 237.557 49.2765 238.137 49.1994C238.716 49.1222 239.305 49.2498 239.8 49.56H239.88C242.24 51.06 244.62 52.64 246.94 54.05C248.12 54.74 249.26 55.44 250.39 55.98C250.906 56.2501 251.437 56.4905 251.98 56.7C252.318 56.8494 252.681 56.9375 253.05 56.96C253.11 56.96 253.05 56.89 252.68 56.9C252.563 56.893 252.447 56.893 252.33 56.9L252.11 56.95L252.44 56.78C252.884 56.5409 253.315 56.2772 253.73 55.99C254.625 55.3591 255.461 54.6497 256.23 53.87C257.977 52.0392 259.613 50.1058 261.13 48.08C261.961 47.1503 263.109 46.5646 264.35 46.438C265.591 46.3113 266.834 46.6527 267.835 47.3953C268.837 48.1378 269.525 49.228 269.765 50.4517C270.004 51.6755 269.778 52.9446 269.13 54.01L269.25 54Z" fill="white"/>
<path d="M232.7 47.42L233.87 49.42C233.87 49.42 234.76 52.04 236.55 52.52L241.41 50.95L241.16 50.54C240.54 49.6 240.61 47.77 240.82 46.25C241.03 44.73 240.25 44.68 239.67 45.06C239.259 45.5328 238.971 46.0995 238.83 46.71C238.592 46.3798 238.327 46.0688 238.04 45.78L236.56 44.3C236.25 43.9965 235.836 43.8217 235.402 43.8106C234.968 43.7994 234.546 43.9528 234.22 44.24L233.02 45.31C232.735 45.5733 232.549 45.9256 232.491 46.309C232.432 46.6924 232.506 47.0841 232.7 47.42V47.42Z" fill="#0984C0"/>
<path opacity="0.7" d="M232.7 47.42L233.87 49.42C233.87 49.42 234.76 52.04 236.55 52.52L241.41 50.95L241.16 50.54C240.54 49.6 240.61 47.77 240.82 46.25C241.03 44.73 240.25 44.68 239.67 45.06C239.259 45.5328 238.971 46.0995 238.83 46.71C238.592 46.3798 238.327 46.0688 238.04 45.78L236.56 44.3C236.25 43.9965 235.836 43.8217 235.402 43.8106C234.968 43.7994 234.546 43.9528 234.22 44.24L233.02 45.31C232.735 45.5733 232.549 45.9256 232.491 46.309C232.432 46.6924 232.506 47.0841 232.7 47.42V47.42Z" fill="white"/>
<path d="M278.08 40.22C272.689 41.6489 267.526 43.8267 262.74 46.69C261.993 47.1573 261.407 47.8416 261.061 48.6512C260.714 49.4609 260.623 50.3572 260.8 51.22C262.73 60.66 267.12 73.3 271.86 81.35L293.97 72.2C294.12 68.3 288.75 55.68 283.28 43.48C282.3 41.29 280.41 39.66 278.08 40.22Z" fill="#0984C0"/>
<path opacity="0.8" d="M278.08 40.22C272.689 41.6489 267.526 43.8267 262.74 46.69C261.993 47.1573 261.407 47.8416 261.061 48.6512C260.714 49.4609 260.623 50.3572 260.8 51.22C262.73 60.66 267.12 73.3 271.86 81.35L293.97 72.2C294.12 68.3 288.75 55.68 283.28 43.48C282.3 41.29 280.41 39.66 278.08 40.22Z" fill="white"/>
<path opacity="0.3" d="M286.71 51.21L282.32 49.74C283.32 52.31 286.85 55.56 289.32 57.47C288.52 55.47 287.63 53.37 286.71 51.21Z" fill="#0984C0"/>
<path d="M276.63 30.32C274.8 26.84 270.85 25.09 266.11 25.48C262.11 25.82 258.57 29.9 258.99 32.1C259.41 34.3 262.77 35.24 263.41 36L260.64 38C260.312 38.2369 260.035 38.5376 259.826 38.8843C259.617 39.2309 259.481 39.6162 259.425 40.017C259.369 40.4178 259.394 40.8258 259.5 41.2164C259.606 41.607 259.789 41.9722 260.04 42.29C261.21 43.77 262.75 45.29 263.64 46.41C271.3 46.21 276.97 43.29 279.02 40.48C278.25 36.92 278.41 33.78 276.63 30.32Z" fill="#0984C0"/>
<path opacity="0.8" d="M276.63 30.32C274.8 26.84 270.85 25.09 266.11 25.48C262.11 25.82 258.57 29.9 258.99 32.1C259.41 34.3 262.77 35.24 263.41 36L260.64 38C260.312 38.2369 260.035 38.5376 259.826 38.8843C259.617 39.2309 259.481 39.6162 259.425 40.017C259.369 40.4178 259.394 40.8258 259.5 41.2164C259.606 41.607 259.789 41.9722 260.04 42.29C261.21 43.77 262.75 45.29 263.64 46.41C271.3 46.21 276.97 43.29 279.02 40.48C278.25 36.92 278.41 33.78 276.63 30.32Z" fill="white"/>
<path d="M272.87 32.48C273.414 33.8746 273.532 35.3991 273.209 36.8609C272.887 38.3226 272.138 39.6559 271.058 40.6923C269.978 41.7286 268.615 42.4215 267.141 42.6833C265.667 42.9452 264.149 42.7642 262.778 42.1632C261.407 41.5623 260.245 40.5684 259.439 39.3072C258.633 38.046 258.218 36.5741 258.249 35.0775C258.279 33.5809 258.752 32.1269 259.608 30.8992C260.465 29.6715 261.666 28.7252 263.06 28.18C264.931 27.451 267.015 27.4944 268.854 28.3006C270.694 29.1068 272.138 30.61 272.87 32.48V32.48Z" fill="#263238"/>
<path d="M337.8 122.6C337.69 119.31 337.54 119.6 337.45 116.83C337.39 115.13 337.38 113.24 337.37 111.61C337.367 110.836 337.096 110.087 336.604 109.489C336.112 108.891 335.429 108.482 334.67 108.33C333.35 108.06 332.02 107.81 330.67 107.53C328.94 107.16 327.23 106.76 325.54 106.27C324.22 105.89 322.92 105.47 321.63 105C320.34 104.53 318.89 104 317.55 103.38C315.97 102.71 314.41 101.99 312.87 101.24C311.14 100.42 309.43 99.56 307.72 98.69C301.14 87.8 301 80.62 293.94 72.2L278.78 79.06C278.78 79.06 289.92 98.82 297.5 107.2C301.87 112.02 308.72 114.2 314.83 115.78C319.24 116.91 323.71 117.78 328.18 118.61C329.92 118.93 331.81 119.05 333.31 120.09C334.42 120.941 335.181 122.168 335.45 123.54C335.517 123.82 335.577 124.1 335.63 124.38C335.82 125.22 337.87 124.58 337.8 122.6Z" fill="#0984C0"/>
<path opacity="0.8" d="M337.8 122.6C337.69 119.31 337.54 119.6 337.45 116.83C337.39 115.13 337.38 113.24 337.37 111.61C337.367 110.836 337.096 110.087 336.604 109.489C336.112 108.891 335.429 108.482 334.67 108.33C333.35 108.06 332.02 107.81 330.67 107.53C328.94 107.16 327.23 106.76 325.54 106.27C324.22 105.89 322.92 105.47 321.63 105C320.34 104.53 318.89 104 317.55 103.38C315.97 102.71 314.41 101.99 312.87 101.24C311.14 100.42 309.43 99.56 307.72 98.69C301.14 87.8 301 80.62 293.94 72.2L278.78 79.06C278.78 79.06 289.92 98.82 297.5 107.2C301.87 112.02 308.72 114.2 314.83 115.78C319.24 116.91 323.71 117.78 328.18 118.61C329.92 118.93 331.81 119.05 333.31 120.09C334.42 120.941 335.181 122.168 335.45 123.54C335.517 123.82 335.577 124.1 335.63 124.38C335.82 125.22 337.87 124.58 337.8 122.6Z" fill="white"/>
<path opacity="0.3" d="M330.11 107.4C329.51 107.27 328.91 107.14 328.3 106.99C328.35 110.45 326.73 116.41 326.14 118.22L328.04 118.58C329.285 114.978 329.983 111.209 330.11 107.4V107.4Z" fill="#0984C0"/>
<path opacity="0.3" d="M337.41 111.61C337.407 110.837 337.138 110.089 336.648 109.492C336.158 108.894 335.477 108.484 334.72 108.33L333.72 108.14C333.881 109.277 334.462 110.312 335.35 111.04C335.921 111.568 336.605 111.958 337.35 112.18C337.41 112 337.41 111.8 337.41 111.61Z" fill="#0984C0"/>
<path d="M271.46 32.54C271.86 34.06 270.16 35.65 268.81 34.34C267.55 32.9891 266.171 31.7541 264.69 30.65C263.3 29.78 265.15 28.26 267.34 28.85C268.275 29.0848 269.138 29.5434 269.856 30.1862C270.573 30.8291 271.124 31.6369 271.46 32.54V32.54Z" fill="white"/>
<path d="M271.57 80.86C270.87 81.12 272.15 82.32 272.15 82.32C272.15 82.32 286.15 77.53 294.65 72.6C294.67 72.3015 294.619 72.0025 294.501 71.7277C294.383 71.4529 294.201 71.2103 293.97 71.02C286.695 74.7206 279.216 78.0059 271.57 80.86V80.86Z" fill="#0984C0"/>
<path opacity="0.5" d="M271.57 80.86C270.87 81.12 272.15 82.32 272.15 82.32C272.15 82.32 286.15 77.53 294.65 72.6C294.67 72.3015 294.619 72.0025 294.501 71.7277C294.383 71.4529 294.201 71.2103 293.97 71.02C286.695 74.7206 279.216 78.0059 271.57 80.86V80.86Z" fill="white"/>
<path d="M281.87 39.56C284.63 40.96 287.22 42.43 289.87 44.06C291.16 44.88 292.44 45.71 293.71 46.61C294.98 47.51 296.24 48.43 297.51 49.47L297.98 49.86L298.57 50.4C298.922 50.7146 299.256 51.0484 299.57 51.4C299.89 51.75 300.16 52.09 300.42 52.4C300.68 52.71 300.96 53.08 301.19 53.4C302.122 54.6856 302.983 56.0209 303.77 57.4C305.32 60.0744 306.657 62.8663 307.77 65.75C307.976 66.2948 307.986 66.8941 307.8 67.4459C307.614 67.9977 307.242 68.468 306.749 68.7768C306.255 69.0855 305.669 69.2137 305.092 69.1396C304.514 69.0654 303.98 68.7935 303.58 68.37L303.53 68.31C301.53 66.18 299.6 63.94 297.66 61.85C295.72 59.76 293.75 57.64 292.12 56.71C289.85 55.3 287.32 53.89 284.81 52.51L277.25 48.31C276.078 47.6894 275.2 46.6285 274.81 45.3608C274.42 44.093 274.549 42.7223 275.17 41.55C275.791 40.3777 276.852 39.5 278.119 39.11C279.387 38.7199 280.758 38.8494 281.93 39.47L281.87 39.56Z" fill="#0984C0"/>
<path opacity="0.8" d="M281.87 39.56C284.63 40.96 287.22 42.43 289.87 44.06C291.16 44.88 292.44 45.71 293.71 46.61C294.98 47.51 296.24 48.43 297.51 49.47L297.98 49.86L298.57 50.4C298.922 50.7146 299.256 51.0484 299.57 51.4C299.89 51.75 300.16 52.09 300.42 52.4C300.68 52.71 300.96 53.08 301.19 53.4C302.122 54.6856 302.983 56.0209 303.77 57.4C305.32 60.0744 306.657 62.8663 307.77 65.75C307.976 66.2948 307.986 66.8941 307.8 67.4459C307.614 67.9977 307.242 68.468 306.749 68.7768C306.255 69.0855 305.669 69.2137 305.092 69.1396C304.514 69.0654 303.98 68.7935 303.58 68.37L303.53 68.31C301.53 66.18 299.6 63.94 297.66 61.85C295.72 59.76 293.75 57.64 292.12 56.71C289.85 55.3 287.32 53.89 284.81 52.51L277.25 48.31C276.078 47.6894 275.2 46.6285 274.81 45.3608C274.42 44.093 274.549 42.7223 275.17 41.55C275.791 40.3777 276.852 39.5 278.119 39.11C279.387 38.7199 280.758 38.8494 281.93 39.47L281.87 39.56Z" fill="white"/>
<path d="M310.14 70.74L309.29 68.61C309.29 68.61 308.82 65.89 307.13 65.13L302.13 65.92L302.3 66.36C302.76 67.36 302.41 69.19 301.96 70.65C301.51 72.11 302.27 72.3 302.91 72.01C303.27 71.85 303.62 71.2 304 70.51C304.186 70.8576 304.397 71.1918 304.63 71.51L305.86 73.2C306.117 73.5502 306.497 73.7902 306.924 73.8718C307.35 73.9535 307.792 73.8706 308.16 73.64L309.52 72.77C309.838 72.5522 310.073 72.2325 310.186 71.8637C310.298 71.4948 310.282 71.0985 310.14 70.74V70.74Z" fill="#0984C0"/>
<path opacity="0.8" d="M310.14 70.74L309.29 68.61C309.29 68.61 308.82 65.89 307.13 65.13L302.13 65.92L302.3 66.36C302.76 67.36 302.41 69.19 301.96 70.65C301.51 72.11 302.27 72.3 302.91 72.01C303.27 71.85 303.62 71.2 304 70.51C304.186 70.8576 304.397 71.1918 304.63 71.51L305.86 73.2C306.117 73.5502 306.497 73.7902 306.924 73.8718C307.35 73.9535 307.792 73.8706 308.16 73.64L309.52 72.77C309.838 72.5522 310.073 72.2325 310.186 71.8637C310.298 71.4948 310.282 71.0985 310.14 70.74V70.74Z" fill="white"/>
<path opacity="0.3" d="M277.65 51.06L276.43 51.16L268.94 69.24C269.349 69.2695 269.761 69.2357 270.16 69.14C270.16 69.14 279.92 65.5 282.87 64.14C280.89 60.05 277.65 51.06 277.65 51.06Z" fill="#0984C0"/>
<path d="M263.98 55.8C264.89 60.5262 266.58 65.0682 268.98 69.24C272.64 67.98 278.74 65.6 281.7 64.24C279.71 59.9749 277.945 55.609 276.41 51.16C273.28 51.37 266.41 54 263.98 55.8Z" fill="white"/>
<path opacity="0.3" d="M271.41 59.71C271.264 60.199 270.976 60.6337 270.583 60.959C270.189 61.2844 269.708 61.4857 269.201 61.5377C268.693 61.5896 268.181 61.4897 267.73 61.2507C267.279 61.0118 266.909 60.6444 266.667 60.1951C266.425 59.7457 266.321 59.2347 266.37 58.7266C266.418 58.2185 266.616 57.7361 266.939 57.3406C267.261 56.945 267.694 56.654 268.182 56.5044C268.67 56.3548 269.191 56.3532 269.68 56.5C270.335 56.6966 270.885 57.1451 271.209 57.747C271.534 58.3489 271.606 59.0549 271.41 59.71V59.71Z" fill="#0984C0"/>
<path opacity="0.6" d="M273.32 56.27C273.281 56.4369 273.193 56.5882 273.066 56.7039C272.94 56.8196 272.781 56.8944 272.611 56.9184C272.442 56.9424 272.269 56.9145 272.115 56.8384C271.961 56.7624 271.834 56.6416 271.751 56.4921C271.667 56.3425 271.63 56.1711 271.646 56.0004C271.661 55.8297 271.728 55.6676 271.837 55.5354C271.946 55.4033 272.093 55.3072 272.257 55.2598C272.422 55.2125 272.597 55.216 272.76 55.27C272.963 55.3348 273.133 55.4741 273.237 55.6597C273.341 55.8453 273.371 56.0634 273.32 56.27Z" fill="#0984C0"/>
<path opacity="0.6" d="M275.56 55.4C275.537 55.516 275.489 55.6258 275.421 55.7225C275.352 55.8191 275.265 55.9003 275.163 55.961C275.061 56.0218 274.948 56.0606 274.831 56.0751C274.713 56.0895 274.594 56.0793 274.481 56.045C274.368 56.0108 274.263 55.9532 274.173 55.8761C274.083 55.7989 274.011 55.7039 273.96 55.597C273.909 55.4902 273.881 55.3739 273.877 55.2556C273.874 55.1373 273.895 55.0196 273.94 54.91C273.972 54.8042 274.025 54.7057 274.095 54.6203C274.165 54.5348 274.251 54.464 274.349 54.412C274.446 54.36 274.553 54.3277 274.663 54.3171C274.773 54.3064 274.884 54.3176 274.99 54.35C275.204 54.4148 275.384 54.5614 275.491 54.758C275.597 54.9545 275.622 55.1852 275.56 55.4V55.4Z" fill="#0984C0"/>
<path opacity="0.5" d="M278.7 63.19L269.45 66.84L268.9 65.02L278.14 61.37L278.7 63.19Z" fill="#0984C0"/>
<path opacity="0.2" d="M227.67 202.17C227.649 207.993 227.086 213.801 225.99 219.52C224.81 224.66 222.977 228.42 220.49 230.8C219.332 231.95 217.956 232.858 216.444 233.47C214.931 234.083 213.312 234.389 211.68 234.37C206.54 234.37 202.617 231.567 199.91 225.96C199.434 224.953 199.03 223.914 198.7 222.85C192.984 227.76 187.661 233.109 182.78 238.85L177.47 245.11C180.328 248.006 183.625 250.433 187.24 252.3C193.467 255.52 201.64 257.133 211.76 257.14C213.54 257.14 215.26 257.09 216.93 256.99C223.053 247.931 228.119 238.201 232.03 227.99L246.88 189.27L227.67 202.17Z" fill="black"/>
<path d="M93.8 255L111.3 272.5L160.3 226.33C143.41 219.88 110.57 238.19 93.8 255Z" fill="#263238"/>
<path d="M154.83 316C149.24 310.4 137.33 298.5 137.33 298.5L183.5 249.5C189.91 266.35 171.6 299.22 154.83 316Z" fill="#263238"/>
<path d="M221.81 205.7L240.9 168.89L204.09 188C192.267 194.132 181.349 201.872 171.65 211L108.9 270.07L139.73 300.9L198.8 238.15C207.932 228.448 215.676 217.528 221.81 205.7V205.7Z" fill="#0984C0"/>
<path opacity="0.6" d="M221.81 205.7L240.9 168.89L204.09 188C192.267 194.132 181.349 201.872 171.65 211L108.9 270.07L139.73 300.9L198.8 238.15C207.932 228.448 215.676 217.528 221.81 205.7V205.7Z" fill="white"/>
<path d="M182.61 240.08C189.734 240.08 195.51 234.304 195.51 227.18C195.51 220.056 189.734 214.28 182.61 214.28C175.485 214.28 169.71 220.056 169.71 227.18C169.71 234.304 175.485 240.08 182.61 240.08Z" fill="white"/>
<path d="M182.61 235.47C187.189 235.47 190.9 231.758 190.9 227.18C190.9 222.602 187.189 218.89 182.61 218.89C178.032 218.89 174.32 222.602 174.32 227.18C174.32 231.758 178.032 235.47 182.61 235.47Z" fill="#0984C0"/>
<path opacity="0.3" d="M150.16 289.82L119.97 259.63L144.69 236.37L173.42 265.11L150.16 289.82Z" fill="#0984C0"/>
<path d="M100.63 282.62C78.0301 284.45 70.5401 298.92 67.9801 318.15C66.6801 327.96 66.1001 337.89 57.8701 343.63C57.375 343.967 57.0022 344.454 56.8076 345.02C56.613 345.587 56.607 346.2 56.7905 346.77C56.9741 347.34 57.3373 347.835 57.8257 348.181C58.3142 348.527 58.9016 348.706 59.5001 348.69C89.8401 347.74 103.99 332.89 105.77 326.69C105.303 329.931 104.467 333.108 103.28 336.16C103.062 336.699 103.019 337.292 103.158 337.856C103.297 338.421 103.61 338.927 104.053 339.302C104.497 339.678 105.047 339.904 105.627 339.949C106.206 339.993 106.785 339.854 107.28 339.55C115.79 334.22 126.47 324.4 127.18 308.47C120.92 299.6 100.63 282.62 100.63 282.62Z" fill="#0984C0"/>
<path opacity="0.2" d="M100.63 282.62C78.0301 284.45 70.5401 298.92 67.9801 318.15C66.6801 327.96 66.1001 337.89 57.8701 343.63C57.375 343.967 57.0022 344.454 56.8076 345.02C56.613 345.587 56.607 346.2 56.7905 346.77C56.9741 347.34 57.3373 347.835 57.8257 348.181C58.3142 348.527 58.9016 348.706 59.5001 348.69C89.8401 347.74 103.99 332.89 105.77 326.69C105.303 329.931 104.467 333.108 103.28 336.16C103.062 336.699 103.019 337.292 103.158 337.856C103.297 338.421 103.61 338.927 104.053 339.302C104.497 339.678 105.047 339.904 105.627 339.949C106.206 339.993 106.785 339.854 107.28 339.55C115.79 334.22 126.47 324.4 127.18 308.47C120.92 299.6 100.63 282.62 100.63 282.62Z" fill="white"/>
<path d="M130.69 315.3L94.4901 279.1L113.77 274.93L134.86 296.02L130.69 315.3Z" fill="#0984C0"/>
</svg>
