<svg width="55" height="55" viewBox="0 0 55 55" fill="none" xmlns="http://www.w3.org/2000/svg">
<circle cx="27.5" cy="27.5" r="27.5" fill="#0984C0"/>
<path d="M21.151 26.0676C23.9311 26.0676 26.1848 23.8139 26.1848 21.0338C26.1848 18.2537 23.9311 16 21.151 16C18.3709 16 16.1172 18.2537 16.1172 21.0338C16.1172 23.8139 18.3709 26.0676 21.151 26.0676Z" fill="white"/>
<path d="M21.0338 38.6108C23.8139 38.6108 26.0676 36.3571 26.0676 33.577C26.0676 30.7969 23.8139 28.5432 21.0338 28.5432C18.2537 28.5432 16 30.7969 16 33.577C16 36.3571 18.2537 38.6108 21.0338 38.6108Z" fill="white"/>
<path d="M33.7819 38.6108C36.562 38.6108 38.8157 36.3571 38.8157 33.577C38.8157 30.7969 36.562 28.5432 33.7819 28.5432C31.0018 28.5432 28.748 30.7969 28.748 33.577C28.748 36.3571 31.0018 38.6108 33.7819 38.6108Z" fill="white"/>
<path d="M38.4487 16.4094H29.2158V25.6423H38.4487V16.4094Z" fill="white"/>
</svg>
