<svg width="23" height="24" viewBox="0 0 23 24" fill="none" xmlns="http://www.w3.org/2000/svg">
<path d="M5.151 10.7981C7.93109 10.7981 10.1848 8.54438 10.1848 5.76428C10.1848 2.98418 7.93109 0.730469 5.151 0.730469C2.3709 0.730469 0.117188 2.98418 0.117188 5.76428C0.117188 8.54438 2.3709 10.7981 5.151 10.7981Z" fill="#2C2C2B"/>
<path d="M5.03381 23.3411C7.81391 23.3411 10.0676 21.0873 10.0676 18.3072C10.0676 15.5272 7.81391 13.2734 5.03381 13.2734C2.25371 13.2734 0 15.5272 0 18.3072C0 21.0873 2.25371 23.3411 5.03381 23.3411Z" fill="#2C2C2B"/>
<path d="M17.7819 23.3411C20.562 23.3411 22.8157 21.0873 22.8157 18.3072C22.8157 15.5272 20.562 13.2734 17.7819 13.2734C15.0018 13.2734 12.748 15.5272 12.748 18.3072C12.748 21.0873 15.0018 23.3411 17.7819 23.3411Z" fill="#2C2C2B"/>
<path d="M22.4477 1.14062H13.2148V10.3735H22.4477V1.14062Z" fill="#0984C0"/>
</svg>
