<svg width="120" height="24" viewBox="0 0 120 24" fill="none" xmlns="http://www.w3.org/2000/svg">
<path d="M40.6272 23.7658C39.5777 23.7658 38.6468 23.5881 37.8343 23.2326C37.0218 22.8772 36.3871 22.3821 35.9301 21.7473C35.473 21.1126 35.2446 20.3805 35.2446 19.5511C35.2446 18.7386 35.4984 18.0065 36.0062 17.3549C36.514 16.7032 37.1826 16.187 38.012 15.8061C38.8414 15.4253 39.747 15.2349 40.7287 15.2349C41.7782 15.2349 42.7133 15.3957 43.5343 15.7173C44.3552 16.0389 45.0027 16.5086 45.4766 17.1264C45.9506 17.7442 46.1706 18.5186 46.1367 19.4495C46.1198 20.2959 45.8617 21.0449 45.3623 21.6966C44.863 22.3482 44.2029 22.856 43.3819 23.2199C42.561 23.5839 41.6428 23.7658 40.6272 23.7658ZM40.6779 22.6486C41.7613 22.6486 42.671 22.3609 43.4074 21.7854C44.1436 21.2099 44.5287 20.4228 44.5625 19.4242C44.5625 18.4086 44.1944 17.6257 43.4581 17.0756C42.7218 16.5255 41.8036 16.2505 40.7033 16.2505C39.9586 16.2674 39.29 16.4239 38.6975 16.7202C38.1051 17.0164 37.6396 17.4057 37.3011 17.8881C36.9626 18.3705 36.7933 18.9164 36.7933 19.5257C36.8102 20.4905 37.1826 21.2522 37.9105 21.8108C38.6383 22.3694 39.5608 22.6486 40.6779 22.6486ZM31.4869 13.0006C31.1991 13.0683 31.0002 13.0894 30.8902 13.064C30.7802 13.0387 30.6405 12.9667 30.4713 12.8482C30.3189 12.7636 30.1074 12.5986 29.8366 12.3531C29.5657 12.1077 29.4134 11.9342 29.3795 11.8327C29.3287 11.748 29.3584 11.6253 29.4684 11.4645C29.5784 11.3037 29.6842 11.2402 29.7858 11.2741C30.3274 11.3926 30.9748 11.4814 31.7281 11.5407C32.4813 11.5999 33.3065 11.621 34.2036 11.6041C35.5915 11.6041 37.0557 11.5787 38.596 11.528V9.52219C38.596 9.03131 38.5579 8.58698 38.4817 8.18922C38.4056 7.79147 38.139 7.45717 37.6819 7.18633C37.6143 7.15249 37.572 7.11013 37.555 7.05937C37.5042 6.99168 37.5211 6.88164 37.6058 6.7293C37.8258 6.44154 38.0713 6.33155 38.3421 6.39923C38.6129 6.48389 38.8583 6.58965 39.0784 6.71661C39.2984 6.84357 39.5015 6.97476 39.6877 7.11013C39.9247 7.29637 40.0263 7.4402 39.9924 7.54178C39.9247 7.77873 39.8867 8.05803 39.8781 8.37964C39.8697 8.70125 39.857 9.03131 39.8401 9.36984L39.7639 11.5026L45.2989 11.2994C46.3991 11.2656 47.4104 11.1937 48.3329 11.0836C49.2554 10.9736 49.9113 10.8509 50.3007 10.7155C50.4868 10.6478 50.6307 10.6393 50.7323 10.6901C50.8338 10.7409 50.9354 10.834 51.0369 10.9694C51.1216 11.0879 51.2104 11.2402 51.3035 11.4264C51.3966 11.6126 51.4432 11.7649 51.4432 11.8834C51.4432 12.0019 51.3839 12.1077 51.2654 12.2008C51.147 12.2939 51.0623 12.3405 51.0116 12.3405C50.4191 12.2558 49.759 12.2135 49.0312 12.2135C48.3033 12.2135 47.6009 12.222 46.9238 12.2389H45.7051C44.9434 12.2558 44.1013 12.2769 43.1788 12.3023C42.2564 12.3278 41.3211 12.3574 40.3732 12.3912C39.4254 12.4251 38.5113 12.4589 37.6312 12.4928C36.751 12.5266 35.9724 12.5605 35.2953 12.5943C34.5337 12.6282 33.8354 12.679 33.2007 12.7467C32.5659 12.8144 31.9946 12.899 31.4869 13.0006ZM44.6387 9.03977C44.5372 9.00593 44.4864 8.90858 44.4864 8.74778C44.4864 8.58698 44.5033 8.42194 44.5372 8.25268C44.6557 7.77873 44.7742 7.21594 44.8926 6.56427C45.0111 5.91259 45.1254 5.25669 45.2354 4.59655C45.3454 3.93641 45.4174 3.36094 45.4512 2.87007C45.4681 2.73464 45.4385 2.65427 45.3623 2.62889C45.2862 2.6035 45.2311 2.59076 45.1973 2.59076H45.1719C44.9688 2.59076 44.6303 2.59927 44.1563 2.61619C43.6824 2.63312 43.1661 2.65427 42.6076 2.67965C42.049 2.70503 41.5369 2.73041 41.0715 2.7558C40.606 2.78123 40.2717 2.80238 40.0686 2.8193C39.5777 2.85314 39.0488 2.89122 38.4817 2.93357C37.9147 2.97587 37.3773 3.01818 36.8695 3.06048C36.3617 3.10284 35.9301 3.15783 35.5746 3.22552C35.253 3.29325 35.0372 3.30594 34.9272 3.26359C34.8171 3.22129 34.6859 3.13245 34.5337 2.99703C34.3813 2.82776 34.2374 2.66273 34.102 2.50192C33.9666 2.34112 33.8735 2.21839 33.8227 2.13378C33.7719 2.04913 33.7889 1.93491 33.8735 1.79103C33.9581 1.64714 34.0597 1.5921 34.1782 1.62599C34.4321 1.7106 34.7875 1.7741 35.2446 1.81641C35.7016 1.85871 36.2094 1.87986 36.7679 1.87986C37.3265 1.87986 37.8724 1.87563 38.4056 1.86717C38.9388 1.85871 39.4085 1.84602 39.8147 1.8291C40.1871 1.81218 40.6441 1.79103 41.1857 1.76564C41.7274 1.74021 42.2775 1.7106 42.8361 1.67676C43.3946 1.64291 43.9109 1.59638 44.3848 1.5371C44.8588 1.47788 45.2227 1.39745 45.4766 1.29592C45.612 1.24511 45.7474 1.24511 45.8828 1.29592L47.4062 1.8291C47.4739 1.86294 47.5247 1.92217 47.5585 2.00682C47.5924 2.09143 47.5839 2.19301 47.5332 2.31151C47.4993 2.36227 47.4274 2.51885 47.3174 2.78123C47.2073 3.04356 47.1269 3.26787 47.0761 3.45406C47.0254 3.64024 46.9492 3.92372 46.8476 4.30461C46.7461 4.68544 46.6361 5.09588 46.5176 5.53599C46.3991 5.9761 46.2806 6.395 46.1621 6.79281C46.0436 7.19056 45.9421 7.5164 45.8574 7.77027C45.502 8.75201 45.0958 9.1752 44.6387 9.03977Z" fill="white"/>
<path d="M60.0869 23.9933C59.7653 24.0441 59.5791 23.8071 59.5283 23.2824L59.1474 18.2552C59.1136 17.6797 59.0205 17.265 58.8682 17.0111C58.7158 16.7572 58.4196 16.5203 57.9795 16.3002C57.8102 16.2494 57.7679 16.1055 57.8526 15.8686C57.9203 15.6824 58.0134 15.5681 58.1318 15.5258C58.2503 15.4835 58.3773 15.4708 58.5127 15.4877C58.6989 15.5216 58.9443 15.5724 59.249 15.64C59.5537 15.7078 59.8245 15.7755 60.0615 15.8432C60.2307 15.8432 60.5735 15.839 61.0898 15.8305C61.606 15.822 62.1942 15.8135 62.8544 15.8051C63.5145 15.7966 64.1619 15.7797 64.7966 15.7543C65.4314 15.7289 65.9519 15.6993 66.3581 15.6655C66.7982 15.6316 67.2129 15.5893 67.6022 15.5385C67.9915 15.4877 68.2793 15.42 68.4655 15.3354C68.4824 15.3184 68.5078 15.3015 68.5417 15.2846C68.6432 15.2508 68.7448 15.2508 68.8463 15.2846L70.1919 15.6147C70.3443 15.6485 70.3951 15.767 70.3443 15.9701C70.2935 16.1733 70.2343 16.4906 70.1666 16.9222C70.0989 17.3539 70.0396 17.7474 69.9888 18.1029C69.955 18.3737 69.9085 18.7249 69.8492 19.1565C69.79 19.5882 69.735 20.0283 69.6842 20.4768C69.6334 20.9254 69.5911 21.3104 69.5572 21.632C69.6757 21.7167 69.8407 21.8436 70.0524 22.0129C70.2639 22.1821 70.3697 22.326 70.3697 22.4445C70.3697 22.563 70.3104 22.6942 70.1919 22.838C70.0735 22.9819 69.9973 23.0539 69.9635 23.0539C69.371 23.0031 68.6559 22.9735 67.818 22.965C66.9802 22.9565 66.1169 22.9608 65.2283 22.9777C64.3396 22.9946 63.5018 23.0158 62.7147 23.0412C61.9276 23.0666 61.2802 23.0877 60.7724 23.1046C60.7385 23.3755 60.6539 23.5828 60.5185 23.7267C60.3831 23.8706 60.2392 23.9594 60.0869 23.9933ZM60.747 22.0637H61.4325C61.8388 22.0637 62.3508 22.0594 62.9686 22.051C63.5864 22.0425 64.2381 22.0298 64.9236 22.0129C65.6091 21.9959 66.2608 21.9706 66.8786 21.9367C67.4964 21.9029 68 21.869 68.3893 21.8351L68.6178 16.7826C68.6178 16.6641 68.5924 16.5964 68.5417 16.5795C68.4909 16.5626 68.4401 16.5541 68.3893 16.5541H68.3639C68.0084 16.571 67.5006 16.5879 66.8405 16.6049C66.1804 16.6218 65.461 16.6429 64.6824 16.6684C63.9038 16.6938 63.1421 16.7149 62.3973 16.7318C61.6525 16.7488 61.0263 16.7657 60.5185 16.7826L60.747 22.0637ZM54.2726 14.9799C54.0695 15.0815 53.8495 15.1069 53.6125 15.0561C53.3755 15.0053 53.2147 14.908 53.1301 14.7641C53.0454 14.6202 53.1216 14.4806 53.3586 14.3452C53.951 14.0405 54.6069 13.63 55.3263 13.1138C56.0457 12.5975 56.7862 12.0051 57.5479 11.3365C58.3096 10.6679 59.0332 9.94429 59.7187 9.1657C60.4042 8.38707 60.9966 7.58305 61.496 6.75365C61.9953 5.92425 62.355 5.09485 62.5751 4.26545C62.6258 4.11316 62.6174 4.02427 62.5497 3.99889C62.4819 3.97351 62.4312 3.96081 62.3973 3.96081H62.372C61.9826 3.96081 61.4833 3.98197 60.874 4.02427C60.2646 4.06657 59.7653 4.1047 59.376 4.13854C58.6481 4.20622 58.0388 4.26545 57.5479 4.31626C57.057 4.36703 56.5577 4.43471 56.0499 4.51937C55.5252 4.60398 55.1359 4.54475 54.882 4.34165C54.4927 4.02004 54.2388 3.7492 54.1203 3.52917C54.0864 3.44456 54.1076 3.33029 54.1838 3.18641C54.2599 3.04253 54.3573 2.98753 54.4758 3.02137C54.9666 3.10603 55.5717 3.16526 56.2911 3.1991C57.0105 3.23294 57.7679 3.23294 58.5635 3.1991C59.3082 3.16526 60.0615 3.10603 60.8231 3.02137C61.5849 2.93677 62.1858 2.80135 62.6258 2.61516C62.7612 2.56435 62.8967 2.56435 63.0321 2.61516L64.4793 3.22448C64.547 3.25832 64.602 3.30491 64.6443 3.36413C64.6867 3.42336 64.6824 3.51225 64.6316 3.63075L63.7937 5.408C63.2521 6.57592 62.5751 7.66771 61.7626 8.68329C60.9501 9.69888 60.0911 10.6213 59.1855 11.4507C58.2799 12.2801 57.3998 12.9911 56.545 13.5835C55.6902 14.1759 54.9327 14.6414 54.2726 14.9799ZM69.0748 13.9898C68.9225 13.9898 68.8294 13.9051 68.7955 13.7358C68.7617 13.5666 68.7321 13.3127 68.7067 12.9741C68.6813 12.6356 68.6686 12.2844 68.6686 11.9205V3.42759C68.6686 2.9198 68.6474 2.52204 68.6051 2.23428C68.5628 1.94656 68.4528 1.7011 68.275 1.498C68.0973 1.29489 67.8053 1.07481 67.3991 0.837861C67.2299 0.71936 67.1875 0.567018 67.2722 0.380832C67.4245 0.126961 67.6276 0 67.8815 0C68.1354 0 68.4739 0.093118 68.8971 0.279304C69.3202 0.465489 69.6672 0.643214 69.9381 0.812478C70.0227 0.863243 70.0989 0.930979 70.1666 1.01559C70.2343 1.10024 70.2597 1.19331 70.2428 1.29489C70.192 1.5826 70.1581 1.87037 70.1412 2.15813C70.1243 2.4459 70.1158 2.7675 70.1158 3.12295V7.56613C70.979 7.56613 71.6984 7.50267 72.2739 7.37571C72.8494 7.24875 73.2811 7.14299 73.5688 7.05834C73.755 6.99065 73.8904 6.98219 73.975 7.03295C74.0596 7.08372 74.1358 7.16837 74.2035 7.28687C74.2713 7.3884 74.3474 7.55344 74.4321 7.78193C74.5167 8.01047 74.559 8.1755 74.559 8.27703C74.559 8.37861 74.504 8.47172 74.3939 8.55633C74.284 8.64099 74.2035 8.68329 74.1528 8.68329C73.4757 8.61556 72.8113 8.56902 72.1597 8.54364C71.508 8.51826 70.8267 8.50557 70.1158 8.50557V10.8668C70.1158 11.1207 70.1031 11.4211 70.0777 11.7681C70.0524 12.1151 70.0015 12.4579 69.9254 12.7964C69.8492 13.1349 69.7434 13.4185 69.608 13.6469C69.4726 13.8755 69.2949 13.9898 69.0748 13.9898Z" fill="white"/>
<path d="M88.5654 23.9171C87.5498 23.9171 86.6569 23.7352 85.8868 23.3712C85.1166 23.0073 84.5115 22.508 84.0714 21.8733C83.6313 21.2385 83.4113 20.5064 83.4113 19.677C83.4113 18.8646 83.6483 18.1325 84.1222 17.4808C84.5962 16.8291 85.2309 16.3129 86.0264 15.932C86.822 15.5512 87.6937 15.3608 88.6416 15.3608C89.6064 15.3608 90.4823 15.5216 91.2694 15.8432C92.0565 16.1648 92.687 16.6387 93.161 17.265C93.6349 17.8913 93.8549 18.6614 93.8211 19.5755C93.8211 20.4218 93.5841 21.175 93.1101 21.8351C92.6362 22.4953 92.0015 23.0073 91.2059 23.3712C90.4104 23.7352 89.5302 23.9171 88.5654 23.9171ZM78.3587 13.4311C78.1725 13.4481 78.0329 13.4015 77.9398 13.2915C77.8467 13.1815 77.8002 12.9318 77.8002 12.5425C77.8002 12.1024 77.7959 11.6327 77.7875 11.1334C77.779 10.634 77.7663 9.99933 77.7494 9.22915C77.7325 8.45903 77.707 7.43916 77.6732 6.16971C77.6563 5.66191 77.6055 5.1795 77.5209 4.72248C77.4363 4.26545 77.157 3.88462 76.683 3.57993C76.5307 3.4784 76.5053 3.33452 76.6069 3.14833C76.793 2.86057 77.0384 2.75899 77.3431 2.84365C77.5801 2.91133 77.834 3.01291 78.1048 3.14833C78.3756 3.28376 78.6126 3.44456 78.8157 3.63074C79.0527 3.83385 79.1543 4.01158 79.1204 4.16392C79.0866 4.3501 79.0697 4.5659 79.0697 4.81136V6.27123C79.4759 6.27123 79.971 6.267 80.5549 6.25854C81.1389 6.25008 81.7398 6.23316 82.3576 6.20778C82.9754 6.1824 83.5509 6.15702 84.0841 6.13163C84.6173 6.1062 85.0362 6.07659 85.3409 6.04275V4.92558C85.3409 4.40087 85.3071 3.94812 85.2393 3.56724C85.1716 3.18641 84.9093 2.84365 84.4523 2.53896C84.3169 2.45436 84.2915 2.31047 84.3761 2.10737C84.5115 1.78576 84.757 1.68418 85.1124 1.80268C85.3832 1.88729 85.6498 1.99733 85.9122 2.13275C86.1745 2.26817 86.4157 2.40354 86.6358 2.53896C86.8558 2.69131 86.9574 2.86057 86.9405 3.04676C86.8389 3.67305 86.7881 4.38395 86.7881 5.1795L86.7373 11.1715C86.7373 11.6624 86.6823 12.0897 86.5723 12.4536C86.4623 12.8176 86.2126 13.0334 85.8233 13.1011C85.6371 13.1349 85.5144 13.0588 85.4552 12.8726C85.3959 12.6864 85.3578 12.4748 85.3409 12.2378C85.087 12.2378 84.6935 12.2421 84.1603 12.2505C83.6271 12.259 83.0389 12.2674 82.3957 12.2759C81.7525 12.2844 81.1347 12.2971 80.5422 12.314C79.9498 12.331 79.4674 12.3479 79.0951 12.3648C79.0442 12.7033 78.9427 12.9572 78.7904 13.1265C78.638 13.2957 78.4941 13.3973 78.3587 13.4311ZM88.5908 22.7746C89.6402 22.7746 90.5162 22.4953 91.2186 21.9367C91.9211 21.3782 92.2892 20.5826 92.3231 19.5501C92.3569 18.89 92.2046 18.3271 91.8661 17.8617C91.5275 17.3962 91.0747 17.0407 90.5077 16.7953C89.9407 16.5499 89.3102 16.4271 88.6162 16.4271C87.9052 16.4271 87.2706 16.5668 86.7119 16.8461C86.1534 17.1253 85.709 17.5105 85.379 18.0013C85.0489 18.4921 84.8839 19.0423 84.8839 19.6516C84.8839 20.6164 85.2351 21.3782 85.9376 21.9367C86.64 22.4953 87.5244 22.7746 88.5908 22.7746ZM92.6532 15.0815C92.5008 15.0815 92.4077 14.9969 92.3739 14.8276C92.34 14.6583 92.3104 14.4002 92.285 14.0532C92.2596 13.7062 92.2469 13.3465 92.2469 12.9741V10.3082L91.5106 10.3336C90.9859 10.3505 90.5416 10.3886 90.1776 10.4478C89.8137 10.5071 89.3779 10.596 88.8701 10.7145C88.6839 10.7483 88.5358 10.761 88.4257 10.7525C88.3157 10.7441 88.193 10.6975 88.0576 10.6129C87.9222 10.5283 87.7444 10.4013 87.5244 10.232C87.3044 10.0628 87.1774 9.93582 87.1436 9.85121C87.1097 9.74964 87.1351 9.63965 87.2197 9.52115C87.3044 9.40265 87.4059 9.35188 87.5244 9.3688C87.9984 9.45341 88.5315 9.5 89.124 9.50846C89.7164 9.51692 90.5289 9.4873 91.5614 9.41957L92.2469 9.3688V5.66191L91.3583 5.6873C90.8843 5.70422 90.495 5.7296 90.1903 5.76344C89.8857 5.79734 89.5133 5.8481 89.0732 5.91579C88.9039 5.94968 88.76 5.97083 88.6416 5.97929C88.5231 5.98775 88.3961 5.95814 88.2607 5.8904C88.1253 5.82272 87.9518 5.72114 87.7402 5.58572C87.5287 5.45035 87.4059 5.34031 87.3721 5.25565C87.3213 5.15412 87.3425 5.03139 87.4356 4.88751C87.5286 4.74363 87.6429 4.68863 87.7783 4.72248C88.1676 4.79021 88.6077 4.84098 89.0986 4.87482C89.5894 4.90866 90.3004 4.89174 91.2313 4.82405L92.2469 4.74786V3.42759C92.2469 2.91979 92.2257 2.52204 92.1834 2.23428C92.1411 1.94656 92.0311 1.7011 91.8534 1.498C91.6756 1.29489 91.3837 1.07481 90.9774 0.83786C90.8082 0.71936 90.7658 0.567017 90.8505 0.380832C91.0028 0.126961 91.2059 0 91.4599 0C91.7137 0 92.0523 0.093118 92.4754 0.279304C92.8986 0.465489 93.2456 0.643214 93.5164 0.812478C93.601 0.863242 93.6772 0.930978 93.7449 1.01559C93.8126 1.10024 93.838 1.19331 93.8211 1.29489C93.7703 1.5826 93.7364 1.87037 93.7195 2.15813C93.7026 2.44589 93.6941 2.7675 93.6941 3.12295V11.9078C93.6941 12.1617 93.6814 12.4663 93.6561 12.8218C93.6307 13.1773 93.5799 13.5285 93.5037 13.8755C93.4275 14.2225 93.3218 14.5102 93.1863 14.7387C93.0509 14.9672 92.8732 15.0815 92.6532 15.0815ZM79.1204 11.4507C79.4759 11.4507 79.9498 11.4465 80.5422 11.438C81.1347 11.4296 81.7525 11.4169 82.3957 11.4C83.0389 11.3831 83.6271 11.3577 84.1603 11.3238C84.6935 11.2899 85.087 11.2476 85.3409 11.1969V7.08371H84.0841C83.5509 7.08371 82.9754 7.09217 82.3576 7.1091C81.7398 7.12607 81.1389 7.14299 80.5549 7.15991C79.971 7.17683 79.4759 7.19375 79.0697 7.21067L79.1204 11.4507Z" fill="white"/>
<path d="M108.902 23.8774C107.886 23.8774 106.98 23.7039 106.185 23.3569C105.389 23.0098 104.767 22.5275 104.319 21.9097C103.87 21.2918 103.646 20.5767 103.646 19.7642C103.646 18.9856 103.891 18.2789 104.382 17.6442C104.873 17.0095 105.525 16.5059 106.337 16.1335C107.15 15.7611 108.038 15.5749 109.003 15.5749C110.019 15.5749 110.929 15.7273 111.733 16.0319C112.537 16.3366 113.171 16.7936 113.637 17.403C114.102 18.0123 114.318 18.7656 114.284 19.6626C114.25 20.492 113.992 21.2241 113.51 21.8589C113.027 22.4936 112.388 22.9887 111.593 23.3441C110.797 23.6996 109.9 23.8774 108.902 23.8774ZM99.7867 14.1023C99.4989 14.17 99.3 14.1912 99.19 14.1658C99.08 14.1404 98.9403 14.0685 98.7711 13.95C98.6187 13.8654 98.4072 13.7003 98.1363 13.4549C97.8655 13.2094 97.7132 13.036 97.6794 12.9344C97.6285 12.8498 97.6582 12.727 97.7682 12.5662C97.8782 12.4054 97.984 12.342 98.0856 12.3758C98.6272 12.4943 99.2746 12.5832 100.028 12.6424C100.781 12.7017 101.606 12.7228 102.503 12.7059C103.367 12.7059 104.289 12.6974 105.271 12.6805C106.253 12.6636 107.26 12.6382 108.292 12.6043L108.191 8.71969C107.463 8.75353 106.735 8.7832 106.007 8.80858C105.279 8.83396 104.577 8.84665 103.9 8.84665C103.138 8.84665 102.757 8.28809 102.757 7.17093V4.37805C102.757 3.80257 102.685 3.36669 102.541 3.07047C102.398 2.77429 102.063 2.51614 101.539 2.29611C101.352 2.21146 101.302 2.06757 101.386 1.86447C101.522 1.52594 101.75 1.3736 102.072 1.40744C102.275 1.42441 102.55 1.46248 102.897 1.52171C103.244 1.58098 103.536 1.66136 103.773 1.76294C104.061 1.76294 104.492 1.75448 105.068 1.73751C105.643 1.72059 106.257 1.69943 106.909 1.67405C107.56 1.64867 108.165 1.62752 108.724 1.6106C109.282 1.59368 109.689 1.58521 109.943 1.58521C110.789 1.58521 111.597 1.52594 112.367 1.40744C113.137 1.28899 113.649 1.18741 113.903 1.1028C114.106 1.01815 114.259 1.00123 114.36 1.05199C114.462 1.1028 114.563 1.17895 114.665 1.28053C114.75 1.36514 114.843 1.48787 114.944 1.64867C115.046 1.80947 115.097 1.94066 115.097 2.04219C115.097 2.16069 115.046 2.2665 114.944 2.35957C114.843 2.45269 114.758 2.49922 114.69 2.49922C114.301 2.46538 113.925 2.44423 113.561 2.43577C113.197 2.4273 112.782 2.4273 112.317 2.43577C111.851 2.44423 111.254 2.46538 110.527 2.49922C110.188 2.51614 109.748 2.53306 109.206 2.54998C108.665 2.56691 108.085 2.58811 107.467 2.61349C106.849 2.63887 106.253 2.66002 105.677 2.67695C105.102 2.69387 104.611 2.71079 104.205 2.72771V6.99321C104.205 7.33173 104.247 7.56022 104.331 7.67872C104.416 7.79722 104.628 7.85645 104.966 7.85645C105.914 7.85645 106.773 7.85222 107.543 7.84376C108.313 7.8353 109.164 7.79722 110.095 7.72949C111.094 7.67872 111.927 7.6195 112.596 7.55176C113.264 7.48408 113.802 7.39096 114.208 7.27251C114.563 7.17093 114.826 7.21323 114.995 7.39942C115.181 7.63642 115.317 7.88183 115.401 8.13575C115.435 8.23728 115.384 8.35155 115.249 8.47851C115.114 8.60542 115.012 8.66893 114.944 8.66893C114.369 8.63508 113.857 8.61393 113.408 8.60542C112.96 8.59696 112.49 8.59696 111.999 8.60542C111.508 8.61393 110.89 8.63508 110.146 8.66893C110.061 8.66893 109.985 8.67316 109.917 8.68162C109.849 8.69008 109.773 8.69431 109.689 8.69431L109.562 12.5535C110.95 12.5197 112.295 12.4689 113.599 12.4012C114.699 12.3504 115.71 12.2742 116.633 12.1727C117.555 12.0711 118.211 11.9526 118.6 11.8173C118.787 11.7495 118.93 11.7411 119.032 11.7918C119.134 11.8426 119.235 11.9357 119.337 12.0711C119.421 12.1896 119.51 12.342 119.603 12.5282C119.696 12.7143 119.743 12.8751 119.743 13.0106C119.743 13.1121 119.684 13.2094 119.565 13.3026C119.447 13.3956 119.362 13.4422 119.311 13.4422C118.719 13.3576 118.059 13.3153 117.331 13.3153C116.603 13.3153 115.901 13.3237 115.224 13.3406H114.005C113.243 13.3576 112.401 13.3787 111.479 13.4041C110.556 13.4295 109.621 13.4591 108.673 13.493C107.725 13.5268 106.811 13.5607 105.931 13.5945C105.051 13.6284 104.272 13.6622 103.595 13.6961C102.833 13.7299 102.135 13.7807 101.5 13.8484C100.866 13.9161 100.294 14.0008 99.7867 14.1023ZM108.952 22.7602C110.002 22.7433 110.878 22.464 111.58 21.9223C112.283 21.3807 112.651 20.619 112.685 19.6373C112.685 18.6894 112.329 17.9488 111.618 17.4157C110.907 16.8825 110.027 16.6159 108.978 16.6159C107.894 16.6497 106.993 16.9544 106.274 17.5299C105.554 18.1054 105.195 18.8417 105.195 19.7388C105.195 20.6528 105.559 21.3849 106.286 21.935C107.014 22.4851 107.903 22.7602 108.952 22.7602Z" fill="white"/>
<path d="M5.151 10.7981C7.93109 10.7981 10.1848 8.54438 10.1848 5.76428C10.1848 2.98418 7.93109 0.730469 5.151 0.730469C2.3709 0.730469 0.117188 2.98418 0.117188 5.76428C0.117188 8.54438 2.3709 10.7981 5.151 10.7981Z" fill="white"/>
<path d="M5.03381 23.3411C7.81391 23.3411 10.0676 21.0873 10.0676 18.3072C10.0676 15.5272 7.81391 13.2734 5.03381 13.2734C2.25371 13.2734 0 15.5272 0 18.3072C0 21.0873 2.25371 23.3411 5.03381 23.3411Z" fill="white"/>
<path d="M17.7819 23.3411C20.562 23.3411 22.8157 21.0873 22.8157 18.3072C22.8157 15.5272 20.562 13.2734 17.7819 13.2734C15.0018 13.2734 12.748 15.5272 12.748 18.3072C12.748 21.0873 15.0018 23.3411 17.7819 23.3411Z" fill="white"/>
<path d="M22.4487 1.14062H13.2158V10.3735H22.4487V1.14062Z" fill="white"/>
</svg>
