<svg width="120" height="24" viewBox="0 0 120 24" fill="none" xmlns="http://www.w3.org/2000/svg">
<path d="M40.6267 23.7653C39.5773 23.7653 38.6463 23.5876 37.8338 23.2322C37.0213 22.8767 36.3866 22.3816 35.9296 21.7468C35.4726 21.1121 35.2441 20.38 35.2441 19.5506C35.2441 18.7382 35.4979 18.0061 36.0057 17.3544C36.5135 16.7028 37.1821 16.1865 38.0115 15.8056C38.8409 15.4248 39.7465 15.2344 40.7283 15.2344C41.7777 15.2344 42.7128 15.3952 43.5338 15.7168C44.3547 16.0384 45.0022 16.5081 45.4761 17.1259C45.9501 17.7437 46.1701 18.5181 46.1362 19.4491C46.1193 20.2954 45.8612 21.0444 45.3618 21.6961C44.8625 22.3477 44.2024 22.8555 43.3814 23.2195C42.5605 23.5834 41.6423 23.7653 40.6267 23.7653ZM40.6774 22.6482C41.7608 22.6482 42.6705 22.3604 43.4069 21.7849C44.1432 21.2094 44.5282 20.4223 44.5621 19.4237C44.5621 18.4081 44.1939 17.6252 43.4576 17.0751C42.7213 16.525 41.8031 16.25 40.7028 16.25C39.9581 16.2669 39.2895 16.4235 38.697 16.7197C38.1046 17.0159 37.6391 17.4052 37.3006 17.8876C36.9621 18.37 36.7928 18.9159 36.7928 19.5253C36.8097 20.49 37.1821 21.2517 37.91 21.8103C38.6378 22.3689 39.5603 22.6482 40.6774 22.6482ZM31.4864 13.0001C31.1987 13.0678 30.9997 13.0889 30.8897 13.0636C30.7797 13.0382 30.64 12.9662 30.4708 12.8478C30.3184 12.7631 30.1069 12.5981 29.8361 12.3527C29.5652 12.1072 29.4129 11.9337 29.379 11.8322C29.3282 11.7475 29.3579 11.6248 29.4679 11.464C29.5779 11.3032 29.6837 11.2397 29.7853 11.2736C30.3269 11.3921 30.9743 11.481 31.7276 11.5402C32.4808 11.5994 33.306 11.6206 34.2031 11.6036C35.5911 11.6036 37.0552 11.5782 38.5955 11.5275V9.5217C38.5955 9.03083 38.5574 8.58649 38.4812 8.18874C38.4051 7.79098 38.1385 7.45668 37.6815 7.18584C37.6138 7.152 37.5715 7.10964 37.5545 7.05888C37.5037 6.99119 37.5206 6.88116 37.6053 6.72881C37.8253 6.44105 38.0708 6.33106 38.3416 6.39874C38.6124 6.4834 38.8578 6.58916 39.0779 6.71612C39.2979 6.84308 39.5011 6.97427 39.6872 7.10964C39.9242 7.29588 40.0258 7.43971 39.9919 7.54129C39.9242 7.77824 39.8862 8.05754 39.8777 8.37915C39.8692 8.70076 39.8565 9.03083 39.8396 9.36935L39.7634 11.5021L45.2984 11.2989C46.3986 11.2651 47.4099 11.1932 48.3325 11.0831C49.2549 10.9732 49.9108 10.8504 50.3002 10.715C50.4864 10.6473 50.6302 10.6389 50.7318 10.6896C50.8333 10.7404 50.9349 10.8335 51.0365 10.9689C51.1211 11.0874 51.2099 11.2397 51.3031 11.4259C51.3961 11.6121 51.4427 11.7644 51.4427 11.8829C51.4427 12.0014 51.3834 12.1072 51.2649 12.2003C51.1465 12.2934 51.0618 12.34 51.0111 12.34C50.4186 12.2553 49.7585 12.213 49.0307 12.213C48.3028 12.213 47.6004 12.2215 46.9233 12.2384H45.7046C44.9429 12.2553 44.1009 12.2765 43.1783 12.3018C42.2559 12.3273 41.3207 12.3569 40.3728 12.3907C39.4249 12.4246 38.5109 12.4584 37.6307 12.4923C36.7505 12.5261 35.9719 12.56 35.2948 12.5938C34.5332 12.6277 33.8349 12.6785 33.2002 12.7462C32.5655 12.8139 31.9942 12.8985 31.4864 13.0001ZM44.6383 9.03929C44.5367 9.00544 44.4859 8.9081 44.4859 8.74729C44.4859 8.58649 44.5028 8.42145 44.5367 8.25219C44.6552 7.77824 44.7737 7.21545 44.8921 6.56378C45.0106 5.9121 45.1249 5.2562 45.2349 4.59606C45.3449 3.93593 45.4169 3.36045 45.4507 2.86958C45.4677 2.73416 45.438 2.65378 45.3618 2.6284C45.2857 2.60302 45.2307 2.59027 45.1968 2.59027H45.1714C44.9683 2.59027 44.6298 2.59878 44.1558 2.61571C43.6819 2.63263 43.1656 2.65378 42.6071 2.67916C42.0485 2.70454 41.5365 2.72993 41.071 2.75531C40.6055 2.78074 40.2712 2.80189 40.0681 2.81881C39.5773 2.85266 39.0483 2.89073 38.4812 2.93308C37.9142 2.97539 37.3768 3.01769 36.869 3.05999C36.3612 3.10235 35.9296 3.15734 35.5741 3.22503C35.2525 3.29276 35.0367 3.30545 34.9267 3.2631C34.8167 3.2208 34.6855 3.13196 34.5332 2.99654C34.3808 2.82727 34.2369 2.66224 34.1015 2.50144C33.9661 2.34063 33.873 2.2179 33.8222 2.1333C33.7715 2.04864 33.7884 1.93442 33.873 1.79054C33.9576 1.64665 34.0592 1.59161 34.1777 1.6255C34.4316 1.71011 34.787 1.77362 35.2441 1.81592C35.7011 1.85822 36.2089 1.87937 36.7674 1.87937C37.326 1.87937 37.8719 1.87514 38.4051 1.86668C38.9383 1.85822 39.408 1.84553 39.8142 1.82861C40.1866 1.81169 40.6436 1.79054 41.1852 1.76515C41.7269 1.73972 42.277 1.71011 42.8356 1.67627C43.3941 1.64242 43.9104 1.59589 44.3843 1.53662C44.8583 1.47739 45.2222 1.39696 45.4761 1.29544C45.6115 1.24462 45.747 1.24462 45.8823 1.29544L47.4057 1.82861C47.4734 1.86245 47.5242 1.92168 47.558 2.00633C47.5919 2.09094 47.5834 2.19252 47.5327 2.31102C47.4988 2.36178 47.4269 2.51836 47.3169 2.78074C47.2068 3.04307 47.1265 3.26738 47.0756 3.45357C47.0249 3.63975 46.9487 3.92324 46.8471 4.30412C46.7456 4.68495 46.6356 5.09539 46.5171 5.5355C46.3986 5.97561 46.2801 6.39451 46.1616 6.79232C46.0431 7.19007 45.9416 7.51591 45.8569 7.76978C45.5015 8.75152 45.0953 9.17471 44.6383 9.03929Z" fill="#2C2C2B"/>
<path d="M60.0865 23.9933C59.7649 24.0441 59.5787 23.8071 59.5279 23.2824L59.1471 18.2552C59.1132 17.6797 59.0201 17.265 58.8678 17.0111C58.7155 16.7572 58.4192 16.5203 57.9791 16.3002C57.8099 16.2494 57.7676 16.1055 57.8522 15.8686C57.9199 15.6824 58.013 15.5681 58.1315 15.5258C58.25 15.4835 58.3769 15.4708 58.5124 15.4877C58.6985 15.5216 58.9439 15.5724 59.2486 15.64C59.5533 15.7078 59.8241 15.7755 60.0611 15.8432C60.2304 15.8432 60.5731 15.839 61.0894 15.8305C61.6056 15.822 62.1939 15.8135 62.854 15.8051C63.5141 15.7966 64.1615 15.7797 64.7963 15.7543C65.431 15.7289 65.9515 15.6993 66.3577 15.6655C66.7978 15.6316 67.2126 15.5893 67.6019 15.5385C67.9911 15.4877 68.2789 15.42 68.4651 15.3354C68.482 15.3184 68.5074 15.3015 68.5413 15.2846C68.6428 15.2508 68.7444 15.2508 68.8459 15.2846L70.1916 15.6147C70.3439 15.6485 70.3947 15.767 70.3439 15.9701C70.2932 16.1733 70.2339 16.4906 70.1662 16.9222C70.0985 17.3539 70.0392 17.7474 69.9885 18.1029C69.9546 18.3737 69.9081 18.7249 69.8488 19.1565C69.7896 19.5882 69.7346 20.0283 69.6838 20.4768C69.633 20.9254 69.5907 21.3104 69.5569 21.632C69.6753 21.7167 69.8404 21.8436 70.052 22.0129C70.2636 22.1821 70.3693 22.326 70.3693 22.4445C70.3693 22.563 70.3101 22.6942 70.1916 22.838C70.0731 22.9819 69.9969 23.0539 69.9631 23.0539C69.3706 23.0031 68.6555 22.9735 67.8177 22.965C66.9798 22.9565 66.1165 22.9608 65.2279 22.9777C64.3392 22.9946 63.5014 23.0158 62.7143 23.0412C61.9273 23.0666 61.2798 23.0877 60.772 23.1046C60.7382 23.3755 60.6535 23.5828 60.5181 23.7267C60.3827 23.8706 60.2388 23.9594 60.0865 23.9933ZM60.7466 22.0637H61.4321C61.8384 22.0637 62.3504 22.0594 62.9682 22.051C63.586 22.0425 64.2377 22.0298 64.9232 22.0129C65.6088 21.9959 66.2604 21.9706 66.8783 21.9367C67.496 21.9029 67.9996 21.869 68.389 21.8351L68.6174 16.7826C68.6174 16.6641 68.5921 16.5964 68.5413 16.5795C68.4905 16.5626 68.4397 16.5541 68.389 16.5541H68.3635C68.0081 16.571 67.5003 16.5879 66.8401 16.6049C66.18 16.6218 65.4606 16.6429 64.682 16.6684C63.9034 16.6938 63.1417 16.7149 62.397 16.7318C61.6522 16.7488 61.0259 16.7657 60.5181 16.7826L60.7466 22.0637ZM54.2722 14.9799C54.0691 15.0815 53.8491 15.1069 53.6121 15.0561C53.3752 15.0053 53.2143 14.908 53.1297 14.7641C53.0451 14.6202 53.1212 14.4806 53.3582 14.3452C53.9506 14.0405 54.6065 13.63 55.3259 13.1138C56.0453 12.5975 56.7858 12.0051 57.5475 11.3365C58.3092 10.6679 59.0328 9.94429 59.7183 9.1657C60.4039 8.38707 60.9963 7.58305 61.4956 6.75365C61.9949 5.92425 62.3547 5.09485 62.5747 4.26545C62.6255 4.11316 62.617 4.02427 62.5493 3.99889C62.4816 3.97351 62.4308 3.96081 62.397 3.96081H62.3716C61.9822 3.96081 61.4829 3.98197 60.8736 4.02427C60.2642 4.06657 59.7649 4.1047 59.3756 4.13854C58.6477 4.20622 58.0384 4.26545 57.5475 4.31626C57.0567 4.36703 56.5573 4.43471 56.0495 4.51937C55.5248 4.60398 55.1355 4.54475 54.8816 4.34165C54.4923 4.02004 54.2384 3.7492 54.1199 3.52917C54.0861 3.44456 54.1072 3.33029 54.1834 3.18641C54.2595 3.04253 54.3569 2.98753 54.4754 3.02137C54.9662 3.10603 55.5714 3.16526 56.2907 3.1991C57.0101 3.23294 57.7676 3.23294 58.5631 3.1991C59.3079 3.16526 60.0611 3.10603 60.8228 3.02137C61.5845 2.93677 62.1854 2.80135 62.6255 2.61516C62.7609 2.56435 62.8963 2.56435 63.0317 2.61516L64.4789 3.22448C64.5466 3.25832 64.6016 3.30491 64.6439 3.36413C64.6863 3.42336 64.682 3.51225 64.6312 3.63075L63.7934 5.408C63.2517 6.57592 62.5747 7.66771 61.7622 8.68329C60.9497 9.69888 60.0907 10.6213 59.1852 11.4507C58.2796 12.2801 57.3994 12.9911 56.5446 13.5835C55.6899 14.1759 54.9324 14.6414 54.2722 14.9799ZM69.0745 13.9898C68.9221 13.9898 68.829 13.9051 68.7952 13.7358C68.7613 13.5666 68.7317 13.3127 68.7063 12.9741C68.6809 12.6356 68.6682 12.2844 68.6682 11.9205V3.42759C68.6682 2.9198 68.6471 2.52204 68.6047 2.23428C68.5624 1.94656 68.4524 1.7011 68.2747 1.498C68.097 1.29489 67.805 1.07481 67.3988 0.837861C67.2295 0.71936 67.1871 0.567018 67.2718 0.380832C67.4241 0.126961 67.6272 0 67.8812 0C68.135 0 68.4736 0.093118 68.8967 0.279304C69.3199 0.465489 69.6669 0.643214 69.9377 0.812478C70.0223 0.863243 70.0985 0.930979 70.1662 1.01559C70.2339 1.10024 70.2593 1.19331 70.2424 1.29489C70.1916 1.5826 70.1577 1.87037 70.1408 2.15813C70.1239 2.4459 70.1154 2.7675 70.1154 3.12295V7.56613C70.9787 7.56613 71.698 7.50267 72.2736 7.37571C72.8491 7.24875 73.2807 7.14299 73.5685 7.05834C73.7546 6.99065 73.89 6.98219 73.9747 7.03295C74.0593 7.08372 74.1355 7.16837 74.2032 7.28687C74.2709 7.3884 74.347 7.55344 74.4317 7.78193C74.5163 8.01047 74.5586 8.1755 74.5586 8.27703C74.5586 8.37861 74.5036 8.47172 74.3936 8.55633C74.2836 8.64099 74.2032 8.68329 74.1524 8.68329C73.4753 8.61556 72.811 8.56902 72.1593 8.54364C71.5076 8.51826 70.8263 8.50557 70.1154 8.50557V10.8668C70.1154 11.1207 70.1027 11.4211 70.0774 11.7681C70.052 12.1151 70.0012 12.4579 69.925 12.7964C69.8488 13.1349 69.7431 13.4185 69.6076 13.6469C69.4722 13.8755 69.2945 13.9898 69.0745 13.9898Z" fill="#2C2C2B"/>
<path d="M88.5648 23.9171C87.5492 23.9171 86.6563 23.7352 85.8862 23.3712C85.116 23.0073 84.5109 22.508 84.0708 21.8733C83.6307 21.2385 83.4107 20.5064 83.4107 19.677C83.4107 18.8646 83.6477 18.1325 84.1216 17.4808C84.5956 16.8291 85.2303 16.3129 86.0258 15.932C86.8214 15.5512 87.6931 15.3608 88.641 15.3608C89.6058 15.3608 90.4817 15.5216 91.2688 15.8432C92.0559 16.1648 92.6864 16.6387 93.1603 17.265C93.6343 17.8913 93.8543 18.6614 93.8205 19.5755C93.8205 20.4218 93.5835 21.175 93.1095 21.8351C92.6356 22.4953 92.0009 23.0073 91.2053 23.3712C90.4098 23.7352 89.5296 23.9171 88.5648 23.9171ZM78.3581 13.4311C78.1719 13.4481 78.0323 13.4015 77.9392 13.2915C77.8461 13.1815 77.7996 12.9318 77.7996 12.5425C77.7996 12.1024 77.7953 11.6327 77.7869 11.1334C77.7784 10.634 77.7657 9.99933 77.7488 9.22915C77.7319 8.45903 77.7064 7.43916 77.6726 6.16971C77.6557 5.66191 77.6049 5.1795 77.5202 4.72248C77.4356 4.26545 77.1563 3.88462 76.6824 3.57993C76.53 3.4784 76.5047 3.33452 76.6062 3.14833C76.7924 2.86057 77.0378 2.75899 77.3425 2.84365C77.5795 2.91133 77.8334 3.01291 78.1042 3.14833C78.375 3.28376 78.612 3.44456 78.8151 3.63074C79.0521 3.83385 79.1537 4.01158 79.1198 4.16392C79.086 4.3501 79.0691 4.5659 79.0691 4.81136V6.27123C79.4753 6.27123 79.9704 6.267 80.5543 6.25854C81.1383 6.25008 81.7392 6.23316 82.357 6.20778C82.9748 6.1824 83.5503 6.15702 84.0835 6.13163C84.6167 6.1062 85.0356 6.07659 85.3403 6.04275V4.92558C85.3403 4.40087 85.3065 3.94812 85.2387 3.56724C85.171 3.18641 84.9087 2.84365 84.4517 2.53896C84.3163 2.45436 84.2909 2.31047 84.3755 2.10737C84.5109 1.78576 84.7564 1.68418 85.1118 1.80268C85.3826 1.88729 85.6492 1.99733 85.9115 2.13275C86.1739 2.26817 86.4151 2.40354 86.6352 2.53896C86.8552 2.69131 86.9568 2.86057 86.9399 3.04676C86.8383 3.67305 86.7875 4.38395 86.7875 5.1795L86.7367 11.1715C86.7367 11.6624 86.6817 12.0897 86.5717 12.4536C86.4617 12.8176 86.212 13.0334 85.8227 13.1011C85.6365 13.1349 85.5138 13.0588 85.4546 12.8726C85.3953 12.6864 85.3572 12.4748 85.3403 12.2378C85.0864 12.2378 84.6928 12.2421 84.1597 12.2505C83.6265 12.259 83.0383 12.2674 82.3951 12.2759C81.7519 12.2844 81.1341 12.2971 80.5416 12.314C79.9492 12.331 79.4668 12.3479 79.0944 12.3648C79.0436 12.7033 78.9421 12.9572 78.7898 13.1265C78.6374 13.2957 78.4935 13.3973 78.3581 13.4311ZM88.5902 22.7746C89.6396 22.7746 90.5156 22.4953 91.218 21.9367C91.9204 21.3782 92.2886 20.5826 92.3225 19.5501C92.3563 18.89 92.204 18.3271 91.8654 17.8617C91.5269 17.3962 91.0741 17.0407 90.5071 16.7953C89.94 16.5499 89.3096 16.4271 88.6156 16.4271C87.9046 16.4271 87.2699 16.5668 86.7113 16.8461C86.1528 17.1253 85.7084 17.5105 85.3784 18.0013C85.0483 18.4921 84.8833 19.0423 84.8833 19.6516C84.8833 20.6164 85.2345 21.3782 85.937 21.9367C86.6394 22.4953 87.5238 22.7746 88.5902 22.7746ZM92.6525 15.0815C92.5002 15.0815 92.4071 14.9969 92.3732 14.8276C92.3394 14.6583 92.3098 14.4002 92.2844 14.0532C92.259 13.7062 92.2463 13.3465 92.2463 12.9741V10.3082L91.51 10.3336C90.9853 10.3505 90.5409 10.3886 90.177 10.4478C89.8131 10.5071 89.3773 10.596 88.8695 10.7145C88.6833 10.7483 88.5352 10.761 88.4251 10.7525C88.3151 10.7441 88.1924 10.6975 88.057 10.6129C87.9216 10.5283 87.7438 10.4013 87.5238 10.232C87.3038 10.0628 87.1768 9.93582 87.143 9.85121C87.1091 9.74964 87.1345 9.63965 87.2191 9.52115C87.3038 9.40265 87.4053 9.35188 87.5238 9.3688C87.9978 9.45341 88.5309 9.5 89.1234 9.50846C89.7158 9.51692 90.5283 9.4873 91.5608 9.41957L92.2463 9.3688V5.66191L91.3577 5.6873C90.8837 5.70422 90.4944 5.7296 90.1897 5.76344C89.885 5.79734 89.5127 5.8481 89.0726 5.91579C88.9033 5.94968 88.7594 5.97083 88.641 5.97929C88.5225 5.98775 88.3955 5.95814 88.2601 5.8904C88.1247 5.82272 87.9512 5.72114 87.7396 5.58572C87.528 5.45035 87.4053 5.34031 87.3715 5.25565C87.3207 5.15412 87.3419 5.03139 87.435 4.88751C87.528 4.74363 87.6423 4.68863 87.7777 4.72248C88.167 4.79021 88.6071 4.84098 89.0979 4.87482C89.5888 4.90866 90.2998 4.89174 91.2307 4.82405L92.2463 4.74786V3.42759C92.2463 2.91979 92.2251 2.52204 92.1828 2.23428C92.1405 1.94656 92.0305 1.7011 91.8528 1.498C91.675 1.29489 91.383 1.07481 90.9768 0.83786C90.8076 0.71936 90.7652 0.567017 90.8499 0.380832C91.0022 0.126961 91.2053 0 91.4592 0C91.7131 0 92.0516 0.093118 92.4748 0.279304C92.898 0.465489 93.2449 0.643214 93.5158 0.812478C93.6004 0.863242 93.6766 0.930978 93.7443 1.01559C93.812 1.10024 93.8374 1.19331 93.8205 1.29489C93.7697 1.5826 93.7358 1.87037 93.7189 2.15813C93.702 2.44589 93.6935 2.7675 93.6935 3.12295V11.9078C93.6935 12.1617 93.6808 12.4663 93.6554 12.8218C93.6301 13.1773 93.5792 13.5285 93.5031 13.8755C93.4269 14.2225 93.3211 14.5102 93.1857 14.7387C93.0503 14.9672 92.8726 15.0815 92.6525 15.0815ZM79.1198 11.4507C79.4753 11.4507 79.9492 11.4465 80.5416 11.438C81.1341 11.4296 81.7519 11.4169 82.3951 11.4C83.0383 11.3831 83.6265 11.3577 84.1597 11.3238C84.6928 11.2899 85.0864 11.2476 85.3403 11.1969V7.08371H84.0835C83.5503 7.08371 82.9748 7.09217 82.357 7.1091C81.7392 7.12607 81.1383 7.14299 80.5543 7.15991C79.9704 7.17683 79.4753 7.19375 79.0691 7.21067L79.1198 11.4507Z" fill="#2C2C2B"/>
<path d="M108.901 23.8776C107.886 23.8776 106.98 23.7041 106.185 23.3571C105.389 23.0101 104.767 22.5277 104.319 21.9099C103.87 21.2921 103.646 20.5769 103.646 19.7645C103.646 18.9858 103.891 18.2792 104.382 17.6444C104.873 17.0097 105.525 16.5061 106.337 16.1337C107.15 15.7613 108.038 15.5752 109.003 15.5752C110.019 15.5752 110.928 15.7275 111.732 16.0322C112.536 16.3369 113.171 16.7938 113.637 17.4032C114.102 18.0126 114.318 18.7658 114.284 19.6629C114.25 20.4923 113.992 21.2244 113.51 21.8591C113.027 22.4938 112.388 22.9889 111.593 23.3444C110.797 23.6999 109.9 23.8776 108.901 23.8776ZM99.7865 14.1025C99.4988 14.1703 99.2999 14.1914 99.1899 14.166C99.0799 14.1407 98.9402 14.0687 98.771 13.9502C98.6186 13.8656 98.407 13.7006 98.1362 13.4551C97.8654 13.2097 97.7131 13.0362 97.6792 12.9346C97.6284 12.85 97.658 12.7273 97.7681 12.5665C97.8781 12.4057 97.9839 12.3422 98.0854 12.3761C98.6271 12.4946 99.2745 12.5834 100.028 12.6427C100.781 12.7019 101.606 12.723 102.503 12.7061C103.367 12.7061 104.289 12.6977 105.271 12.6807C106.252 12.6638 107.26 12.6384 108.292 12.6045L108.191 8.71993C107.463 8.75378 106.735 8.78344 106.007 8.80882C105.279 8.8342 104.577 8.8469 103.9 8.8469C103.138 8.8469 102.757 8.28834 102.757 7.17118V4.37829C102.757 3.80281 102.685 3.36694 102.541 3.07071C102.397 2.77454 102.063 2.51639 101.538 2.29636C101.352 2.2117 101.301 2.06782 101.386 1.86471C101.521 1.52618 101.75 1.37384 102.072 1.40768C102.275 1.42466 102.55 1.46273 102.897 1.52195C103.244 1.58123 103.536 1.6616 103.773 1.76318C104.061 1.76318 104.492 1.75472 105.068 1.73775C105.643 1.72083 106.257 1.69968 106.908 1.6743C107.56 1.64891 108.165 1.62776 108.724 1.61084C109.282 1.59392 109.689 1.58546 109.942 1.58546C110.789 1.58546 111.597 1.52618 112.367 1.40768C113.137 1.28923 113.649 1.18766 113.903 1.10305C114.106 1.01839 114.259 1.00147 114.36 1.05223C114.462 1.10305 114.563 1.17919 114.665 1.28077C114.75 1.36538 114.843 1.48811 114.944 1.64891C115.046 1.80972 115.097 1.94091 115.097 2.04244C115.097 2.16094 115.046 2.26675 114.944 2.35981C114.843 2.45293 114.758 2.49946 114.69 2.49946C114.301 2.46562 113.924 2.44447 113.56 2.43601C113.197 2.42755 112.782 2.42755 112.316 2.43601C111.851 2.44447 111.254 2.46562 110.526 2.49946C110.188 2.51639 109.748 2.53331 109.206 2.55023C108.664 2.56715 108.085 2.58835 107.467 2.61373C106.849 2.63912 106.252 2.66027 105.677 2.67719C105.101 2.69411 104.611 2.71103 104.204 2.72795V6.99345C104.204 7.33198 104.247 7.56047 104.331 7.67897C104.416 7.79747 104.628 7.85669 104.966 7.85669C105.914 7.85669 106.773 7.85246 107.543 7.844C108.313 7.83554 109.164 7.79747 110.095 7.72973C111.093 7.67897 111.927 7.61974 112.596 7.55201C113.264 7.48432 113.802 7.3912 114.208 7.27275C114.563 7.17118 114.826 7.21348 114.995 7.39966C115.181 7.63666 115.317 7.88207 115.401 8.136C115.435 8.23752 115.384 8.35179 115.249 8.47875C115.113 8.60567 115.012 8.66917 114.944 8.66917C114.369 8.63533 113.857 8.61418 113.408 8.60566C112.96 8.5972 112.49 8.5972 111.999 8.60566C111.508 8.61418 110.89 8.63533 110.146 8.66917C110.061 8.66917 109.985 8.6734 109.917 8.68186C109.849 8.69032 109.773 8.69455 109.689 8.69455L109.562 12.5538C110.95 12.5199 112.295 12.4692 113.599 12.4014C114.699 12.3507 115.71 12.2745 116.633 12.173C117.555 12.0714 118.211 11.9529 118.6 11.8175C118.787 11.7498 118.93 11.7413 119.032 11.7921C119.134 11.8429 119.235 11.936 119.337 12.0714C119.421 12.1899 119.51 12.3422 119.603 12.5284C119.696 12.7146 119.743 12.8754 119.743 13.0108C119.743 13.1123 119.684 13.2097 119.565 13.3028C119.447 13.3959 119.362 13.4424 119.311 13.4424C118.719 13.3578 118.059 13.3155 117.331 13.3155C116.603 13.3155 115.901 13.324 115.223 13.3409H114.005C113.243 13.3578 112.401 13.379 111.479 13.4043C110.556 13.4297 109.621 13.4593 108.673 13.4932C107.725 13.5271 106.811 13.5609 105.931 13.5948C105.051 13.6286 104.272 13.6625 103.595 13.6963C102.833 13.7302 102.135 13.7809 101.5 13.8487C100.866 13.9164 100.294 14.001 99.7865 14.1025ZM108.952 22.7604C110.002 22.7435 110.878 22.4642 111.58 21.9226C112.283 21.381 112.651 20.6192 112.685 19.6375C112.685 18.6896 112.329 17.9491 111.618 17.4159C110.907 16.8827 110.027 16.6161 108.978 16.6161C107.894 16.65 106.993 16.9547 106.274 17.5302C105.554 18.1057 105.195 18.842 105.195 19.7391C105.195 20.6531 105.559 21.3852 106.286 21.9353C107.014 22.4854 107.903 22.7604 108.952 22.7604Z" fill="#2C2C2B"/>
<path d="M5.15075 10.7986C7.93085 10.7986 10.1846 8.54486 10.1846 5.76477C10.1846 2.98467 7.93085 0.730957 5.15075 0.730957C2.37066 0.730957 0.116943 2.98467 0.116943 5.76477C0.116943 8.54486 2.37066 10.7986 5.15075 10.7986Z" fill="#2C2C2B"/>
<path d="M5.03381 23.3418C7.81391 23.3418 10.0676 21.0881 10.0676 18.308C10.0676 15.5279 7.81391 13.2742 5.03381 13.2742C2.25371 13.2742 0 15.5279 0 18.308C0 21.0881 2.25371 23.3418 5.03381 23.3418Z" fill="#2C2C2B"/>
<path d="M17.7816 23.3418C20.5617 23.3418 22.8154 21.0881 22.8154 18.308C22.8154 15.5279 20.5617 13.2742 17.7816 13.2742C15.0015 13.2742 12.7478 15.5279 12.7478 18.308C12.7478 21.0881 15.0015 23.3418 17.7816 23.3418Z" fill="#2C2C2B"/>
<path d="M22.4485 1.14038H13.2156V10.3733H22.4485V1.14038Z" fill="#0984C0"/>
</svg>
