<svg width="190" height="161" viewBox="0 0 190 161" fill="none" xmlns="http://www.w3.org/2000/svg">
<path d="M189.182 151.711H173.417V151.83H189.182V151.711Z" fill="#EBEBEB"/>
<path d="M132.69 153.006H128.553V153.125H132.69V153.006Z" fill="#EBEBEB"/>
<path d="M172.94 147.294H163.806V147.413H172.94V147.294Z" fill="#EBEBEB"/>
<path d="M20.5584 148.094H0V148.213H20.5584V148.094Z" fill="#EBEBEB"/>
<path d="M27.8126 148.094H24.7996V148.213H27.8126V148.094Z" fill="#EBEBEB"/>
<path d="M82.2003 150.103H37.6086V150.222H82.2003V150.103Z" fill="#EBEBEB"/>
<path d="M10.5101 81.4438L84.5852 81.4438L84.5852 0.000228882L10.5101 0.000228882L10.5101 81.4438Z" fill="#E6E6E6"/>
<path d="M8.09195 81.4438L83.457 81.4438L83.457 0.000228882L8.09195 0.000228882L8.09195 81.4438Z" fill="#F0F0F0"/>
<path d="M10.5149 81.4438H84.59V84.9948H8.14917L10.5149 81.4438Z" fill="#E6E6E6"/>
<path d="M4.06994 81.4438H79.4303L77.0645 84.9948H1.69946L4.06994 81.4438Z" fill="#F0F0F0"/>
<path d="M80.0776 78.0597V3.38477L11.4813 3.38477V78.0597H80.0776Z" fill="#FAFAFA"/>
<path d="M68.5203 78.0598L42.0261 3.38965H32.6489L59.1431 78.0598H68.5203Z" fill="white"/>
<path d="M78.5066 75.6891C78.5409 75.6891 78.575 75.6823 78.6067 75.6692C78.6385 75.656 78.6674 75.6367 78.6917 75.6124C78.716 75.5881 78.7353 75.5592 78.7484 75.5275C78.7616 75.4957 78.7684 75.4617 78.7684 75.4273V5.58858C78.7671 5.51998 78.739 5.4546 78.69 5.40653C78.6411 5.35846 78.5752 5.33153 78.5066 5.33154C78.4728 5.33154 78.4394 5.33819 78.4082 5.35111C78.377 5.36403 78.3487 5.38296 78.3248 5.40683C78.3009 5.43069 78.282 5.45903 78.2691 5.49022C78.2562 5.5214 78.2495 5.55483 78.2495 5.58858V75.4273C78.2495 75.4959 78.2764 75.5618 78.3245 75.6108C78.3726 75.6597 78.4379 75.6879 78.5066 75.6891Z" fill="#F0F0F0"/>
<path d="M48.5615 78.0598L22.0673 3.38965H18.4116L44.9058 78.0598H48.5615Z" fill="white"/>
<path d="M11.9097 78.0645L11.9097 3.38965H11.4813L11.4813 78.0645H11.9097Z" fill="#E6E6E6"/>
<path opacity="0.5" d="M7.29224 9.92009H81.3721L81.6815 4.70312H7.6064L7.29224 9.92009Z" fill="#E0E0E0"/>
<path opacity="0.5" d="M7.29224 18.4928H81.3721L81.6815 13.2759H7.6064L7.29224 18.4928Z" fill="#E0E0E0"/>
<path opacity="0.5" d="M7.29224 27.0657H81.3721L81.6815 21.8535H7.6064L7.29224 27.0657Z" fill="#E0E0E0"/>
<path opacity="0.5" d="M7.29224 35.6385H81.3721L81.6815 30.4263H7.6064L7.29224 35.6385Z" fill="#E0E0E0"/>
<path opacity="0.5" d="M7.29224 44.216H81.3721L81.6815 38.999H7.6064L7.29224 44.216Z" fill="#E0E0E0"/>
<path opacity="0.5" d="M7.29224 52.7887H81.3721L81.6815 47.5718H7.6064L7.29224 52.7887Z" fill="#E0E0E0"/>
<path d="M13.6945 145.875H17.0693L17.0693 101.236H13.6945L13.6945 145.875Z" fill="#E6E6E6"/>
<path d="M12.6235 145.875H14.9702L14.9702 101.236H12.6235L12.6235 145.875Z" fill="#F0F0F0"/>
<path d="M86.5131 99.1558H11.8621V105.377H86.5131V99.1558Z" fill="#F0F0F0"/>
<path d="M84.59 143.8H87.9648V105.382H84.59V143.8Z" fill="#E6E6E6"/>
<path d="M83.5237 143.8H85.8704V105.382H83.5237V143.8Z" fill="#F0F0F0"/>
<path d="M108.623 143.8H111.998V105.382H108.623V143.8Z" fill="#E6E6E6"/>
<path d="M35.0622 143.8H38.437L38.437 105.382H35.0622L35.0622 143.8Z" fill="#E6E6E6"/>
<path d="M33.9912 143.8H36.3379L36.3379 105.382H33.9912L33.9912 143.8Z" fill="#F0F0F0"/>
<path d="M86.5083 105.382H112.764V99.1605H86.5083V105.382Z" fill="#E6E6E6"/>
<path d="M70.7907 94.5103H38.437V99.156H70.7907V94.5103Z" fill="#EBEBEB"/>
<path d="M70.7908 99.1606H86.6321V94.5149H70.7908V99.1606Z" fill="#E0E0E0"/>
<path d="M74.8843 96.8379H82.5384C82.9012 96.8379 83.1953 96.5438 83.1953 96.181C83.1953 95.8182 82.9012 95.5241 82.5384 95.5241H74.8843C74.5216 95.5241 74.2275 95.8182 74.2275 96.181C74.2275 96.5438 74.5216 96.8379 74.8843 96.8379Z" fill="#F5F5F5"/>
<path d="M55.7825 91.1733H49.2661V94.5101H55.7825V91.1733Z" fill="#F5F5F5"/>
<path d="M52.7598 89.7788H52.2886V91.1735H52.7598V89.7788Z" fill="#E6E6E6"/>
<path d="M61.5943 91.7544H61.123V92.4493H61.5943V91.7544Z" fill="#E6E6E6"/>
<path d="M65.3263 92.4487H57.3914V94.5098H65.3263V92.4487Z" fill="#F0F0F0"/>
<path d="M166.124 72.2518H16.4887C15.0094 72.2185 13.5918 71.6521 12.4969 70.6568C11.4019 69.6615 10.7032 68.3043 10.5292 66.8349L5.07898 12.6851C4.9915 11.9985 5.05275 11.301 5.25856 10.6401C5.46437 9.97919 5.80993 9.37028 6.2718 8.85468C6.73368 8.33908 7.30105 7.92886 7.93543 7.65185C8.5698 7.37485 9.25634 7.23753 9.94846 7.24922H159.584C161.063 7.28339 162.481 7.84996 163.577 8.84496C164.672 9.83996 165.372 11.1967 165.548 12.6661L170.994 66.8159C171.082 67.5027 171.021 68.2005 170.816 68.8617C170.61 69.523 170.265 70.1322 169.803 70.648C169.341 71.1638 168.773 71.574 168.138 71.8507C167.503 72.1275 166.816 72.2643 166.124 72.2518Z" fill="#0984C0"/>
<path opacity="0.3" d="M37.9134 68.1773H19.9159C18.5121 68.1439 17.1674 67.6058 16.128 66.6617C15.0886 65.7176 14.4241 64.4306 14.2563 63.0365L9.57241 16.4599C9.49112 15.8094 9.55061 15.149 9.74685 14.5235C9.94309 13.8979 10.2715 13.3219 10.7098 12.8344C11.1481 12.3469 11.6861 11.9592 12.2873 11.6978C12.8885 11.4364 13.5389 11.3072 14.1944 11.3191H32.1919C33.6001 11.3487 34.95 11.8871 35.9921 12.8347C37.0342 13.7823 37.6981 15.0751 37.8611 16.4742L42.5497 63.0508C42.6289 63.7014 42.5675 64.3615 42.3694 64.9863C42.1713 65.6111 41.8413 66.1861 41.4016 66.6722C40.962 67.1583 40.423 67.5443 39.8212 67.804C39.2194 68.0637 38.5688 68.191 37.9134 68.1773Z" fill="white"/>
<path d="M69.3772 70.0814H50.3895C48.908 70.047 47.4886 69.4793 46.3921 68.4824C45.2955 67.4856 44.5955 66.1266 44.4205 64.655L39.4082 14.8654C39.3199 14.1775 39.3808 13.4787 39.5868 12.8165C39.7928 12.1544 40.1391 11.5443 40.6021 11.028C41.0651 10.5117 41.634 10.1013 42.2699 9.8246C42.9058 9.54792 43.5939 9.41153 44.2872 9.4247H63.2749C64.7589 9.4585 66.1806 10.0279 67.2777 11.0279C68.3747 12.0278 69.0731 13.3908 69.2439 14.8654L74.2562 64.6931C74.3356 65.3767 74.2681 66.0695 74.058 66.7249C73.848 67.3803 73.5004 67.9833 73.0384 68.4935C72.5765 69.0037 72.0109 69.4093 71.3794 69.6831C70.748 69.957 70.0653 70.0928 69.3772 70.0814Z" fill="white"/>
<path opacity="0.3" d="M99.4698 68.1773H81.4723C80.0687 68.1447 78.7241 67.6069 77.6852 66.6625C76.6464 65.7181 75.9832 64.4306 75.8174 63.0365L71.1288 16.4599C71.0475 15.8094 71.107 15.149 71.3032 14.5235C71.4995 13.8979 71.8279 13.3219 72.2662 12.8344C72.7045 12.3469 73.2425 11.9592 73.8437 11.6978C74.4449 11.4364 75.0953 11.3072 75.7508 11.3191H93.7483C95.1521 11.3525 96.4969 11.8906 97.5363 12.8347C98.5757 13.7788 99.2401 15.0658 99.4079 16.4599L104.092 63.0365C104.173 63.687 104.114 64.3474 103.917 64.973C103.721 65.5985 103.393 66.1745 102.954 66.662C102.516 67.1496 101.978 67.5372 101.377 67.7986C100.776 68.06 100.125 68.1892 99.4698 68.1773Z" fill="white"/>
<path opacity="0.2" d="M130.248 68.1772H112.251C110.847 68.1436 109.503 67.6054 108.465 66.6612C107.426 65.717 106.762 64.4301 106.596 63.0364L101.907 16.4598C101.827 15.8092 101.888 15.149 102.085 14.5238C102.282 13.8986 102.611 13.323 103.05 12.8358C103.488 12.3485 104.026 11.961 104.627 11.6994C105.228 11.4377 105.878 11.308 106.534 11.319H124.527C125.936 11.3484 127.287 11.8864 128.331 12.8338C129.374 13.7813 130.04 15.0742 130.205 16.4741L134.889 63.0507C134.968 63.7017 134.907 64.3622 134.708 64.9874C134.51 65.6125 134.18 66.1877 133.74 66.6739C133.299 67.1602 132.76 67.546 132.157 67.8054C131.555 68.0648 130.904 68.1916 130.248 68.1772Z" fill="white"/>
<path opacity="0.1" d="M161.026 68.1772H143.028C141.625 68.1436 140.281 67.6054 139.242 66.6612C138.204 65.717 137.54 64.4301 137.374 63.0364L132.685 16.4598C132.605 15.8092 132.666 15.149 132.863 14.5238C133.06 13.8986 133.389 13.323 133.828 12.8358C134.266 12.3485 134.804 11.961 135.405 11.6994C136.006 11.4377 136.656 11.308 137.312 11.319H155.304C156.708 11.3524 158.053 11.8905 159.092 12.8346C160.132 13.7787 160.796 15.0657 160.964 16.4598L165.648 63.0364C165.729 63.6869 165.67 64.3473 165.473 64.9729C165.277 65.5984 164.949 66.1744 164.511 66.6619C164.072 67.1495 163.534 67.5371 162.933 67.7985C162.332 68.0599 161.681 68.1891 161.026 68.1772Z" fill="white"/>
<path d="M91.7537 26.5843C91.6656 25.8703 91.3231 25.2121 90.7888 24.7303C90.2546 24.2485 89.5646 23.9756 88.8454 23.9615C88.5185 23.9613 88.1949 24.026 87.8934 24.1519C87.5807 23.6158 87.1354 23.1691 86.6002 22.8548C86.065 22.5406 85.458 22.3693 84.8374 22.3574C84.1352 22.3446 83.4535 22.5941 82.9253 23.0571C82.3972 23.5201 82.0607 24.1633 81.9814 24.8612C81.646 24.8774 81.3175 24.963 81.0168 25.1125C80.716 25.262 80.4495 25.4721 80.2339 25.7297C80.0184 25.9873 79.8586 26.2867 79.7644 26.6091C79.6703 26.9315 79.644 27.2698 79.6871 27.6029C79.7743 28.3498 80.129 29.0399 80.6854 29.5456C81.2419 30.0514 81.9627 30.3386 82.7145 30.3542H91.4633C91.7123 30.3588 91.9593 30.3099 92.1877 30.2107C92.4161 30.1116 92.6205 29.9644 92.7871 29.7794C92.9536 29.5943 93.0785 29.3756 93.1531 29.138C93.2278 28.9005 93.2505 28.6497 93.2198 28.4026C93.1693 27.993 93.0052 27.6056 92.7461 27.2843C92.4871 26.963 92.1433 26.7205 91.7537 26.5843Z" fill="white"/>
<path d="M61.4279 21.9484C61.324 21.1157 60.9239 20.3482 60.3007 19.7862C59.6776 19.2242 58.873 18.9053 58.034 18.8877C57.6453 18.8865 57.2602 18.9625 56.9011 19.1115C56.536 18.4862 56.0163 17.9653 55.3921 17.5985C54.7678 17.2318 54.0597 17.0316 53.3359 17.0171C52.5167 17.0035 51.7218 17.2952 51.1059 17.8354C50.49 18.3757 50.0971 19.1258 50.0039 19.9397C49.6127 19.9609 49.2301 20.0623 48.8798 20.2376C48.5295 20.413 48.219 20.6585 47.9677 20.959C47.7163 21.2595 47.5295 21.6084 47.4187 21.9842C47.308 22.3599 47.2757 22.7544 47.324 23.1432C47.4251 24.0159 47.8392 24.8224 48.4895 25.4132C49.1398 26.004 49.9822 26.339 50.8607 26.3562H61.0804C61.3708 26.3618 61.6591 26.3049 61.9256 26.1894C62.1922 26.0739 62.4308 25.9024 62.6254 25.6867C62.8199 25.4709 62.9658 25.2159 63.0532 24.9389C63.1406 24.6618 63.1675 24.3692 63.1319 24.0809C63.0731 23.6026 62.8826 23.1499 62.5818 22.7734C62.2809 22.3969 61.8814 22.1113 61.4279 21.9484Z" fill="#0984C0"/>
<path d="M52.4029 31.3111C52.2975 31.311 52.1958 31.272 52.1173 31.2016C52.0756 31.1645 52.0417 31.1195 52.0174 31.0692C51.9932 31.019 51.9791 30.9644 51.976 30.9087C51.9729 30.8529 51.9808 30.7971 51.9994 30.7445C52.0179 30.6918 52.0467 30.6434 52.084 30.6019L54.7401 27.6507C54.817 27.5744 54.9201 27.5305 55.0283 27.528C55.1366 27.5254 55.2417 27.5643 55.3221 27.6368C55.4025 27.7093 55.4521 27.8098 55.4607 27.9177C55.4693 28.0257 55.4363 28.1328 55.3684 28.2171L52.7171 31.1683C52.6779 31.2131 52.6296 31.2489 52.5754 31.2736C52.5212 31.2982 52.4624 31.311 52.4029 31.3111Z" fill="#0984C0"/>
<path d="M55.4112 31.3111C55.3058 31.311 55.2041 31.272 55.1256 31.2016C55.0839 31.1645 55.05 31.1195 55.0257 31.0692C55.0015 31.019 54.9874 30.9644 54.9843 30.9087C54.9812 30.8529 54.9891 30.7971 55.0077 30.7445C55.0262 30.6918 55.055 30.6434 55.0923 30.6019L57.7484 27.6507C57.8252 27.5744 57.9284 27.5305 58.0366 27.528C58.1448 27.5254 58.2499 27.5643 58.3303 27.6368C58.4107 27.7093 58.4604 27.8098 58.469 27.9177C58.4776 28.0257 58.4446 28.1328 58.3767 28.2171L55.7254 31.1683C55.6862 31.2131 55.6379 31.2489 55.5837 31.2736C55.5295 31.2982 55.4707 31.311 55.4112 31.3111Z" fill="#0984C0"/>
<path d="M49.3946 31.3111C49.2892 31.311 49.1875 31.272 49.109 31.2016C49.0673 31.1645 49.0334 31.1195 49.0091 31.0692C48.9849 31.019 48.9708 30.9644 48.9677 30.9087C48.9646 30.8529 48.9725 30.7971 48.9911 30.7445C49.0096 30.6918 49.0384 30.6434 49.0757 30.6019L51.7318 27.6507C51.8086 27.5744 51.9118 27.5305 52.02 27.528C52.1282 27.5254 52.2333 27.5643 52.3137 27.6368C52.3942 27.7093 52.4438 27.8098 52.4524 27.9177C52.461 28.0257 52.428 28.1328 52.3601 28.2171L49.7088 31.1683C49.6696 31.2131 49.6213 31.2489 49.5671 31.2736C49.5129 31.2982 49.4541 31.311 49.3946 31.3111Z" fill="#0984C0"/>
<g opacity="0.4">
<path opacity="0.4" d="M152.363 24.5999C152.285 23.9848 151.989 23.4181 151.529 23.003C151.068 22.588 150.474 22.3523 149.854 22.3389C149.567 22.3369 149.282 22.3919 149.017 22.5007C148.747 22.0391 148.363 21.6544 147.902 21.3836C147.442 21.1127 146.919 20.9647 146.384 20.9537C145.777 20.9403 145.186 21.1546 144.728 21.5544C144.27 21.9542 143.978 22.5107 143.909 23.1148C143.619 23.1293 143.334 23.204 143.074 23.334C142.814 23.4641 142.583 23.6468 142.397 23.8704C142.211 24.0941 142.073 24.3539 141.993 24.6335C141.912 24.9131 141.89 25.2064 141.929 25.4948C142.004 26.1402 142.309 26.7368 142.79 27.1744C143.27 27.6119 143.893 27.8607 144.542 27.8748H152.101C152.315 27.8793 152.528 27.8375 152.725 27.7522C152.922 27.6669 153.098 27.5402 153.241 27.3807C153.384 27.2212 153.491 27.0326 153.555 26.8279C153.619 26.6232 153.637 26.4071 153.61 26.1945C153.573 25.8383 153.436 25.4998 153.216 25.2177C152.995 24.9356 152.7 24.7215 152.363 24.5999Z" fill="white"/>
<path opacity="0.4" d="M145.694 31.5254C145.616 31.5266 145.541 31.4975 145.485 31.4445C145.423 31.3888 145.386 31.311 145.381 31.228C145.377 31.1451 145.405 31.0637 145.461 31.0018L147.365 28.9074C147.392 28.8761 147.426 28.8506 147.463 28.8323C147.501 28.8139 147.541 28.8031 147.583 28.8004C147.624 28.7978 147.666 28.8034 147.705 28.8168C147.745 28.8303 147.781 28.8513 147.812 28.8788C147.844 28.9063 147.869 28.9397 147.887 28.9771C147.906 29.0145 147.917 29.0551 147.919 29.0966C147.922 29.1382 147.916 29.1799 147.903 29.2193C147.889 29.2587 147.868 29.295 147.841 29.3263L145.937 31.4207C145.907 31.4552 145.869 31.4826 145.827 31.5007C145.785 31.5189 145.74 31.5273 145.694 31.5254Z" fill="white"/>
<path opacity="0.4" d="M147.917 31.5254C147.878 31.5265 147.84 31.5199 147.804 31.506C147.768 31.4921 147.735 31.4712 147.708 31.4445C147.678 31.4157 147.655 31.3812 147.639 31.3432C147.623 31.3052 147.614 31.2644 147.614 31.2231C147.614 31.1819 147.623 31.1411 147.639 31.1031C147.655 31.065 147.678 31.0306 147.708 31.0018L149.612 28.9074C149.639 28.8761 149.672 28.8506 149.71 28.8323C149.747 28.8139 149.788 28.8031 149.829 28.8004C149.871 28.7978 149.913 28.8034 149.952 28.8168C149.991 28.8303 150.028 28.8513 150.059 28.8788C150.09 28.9063 150.116 28.9397 150.134 28.9771C150.153 29.0145 150.163 29.0551 150.166 29.0966C150.169 29.1382 150.163 29.1799 150.15 29.2193C150.136 29.2587 150.115 29.295 150.088 29.3263L148.184 31.4207C148.151 31.4586 148.11 31.4881 148.063 31.5063C148.017 31.5246 147.967 31.5311 147.917 31.5254Z" fill="white"/>
<path opacity="0.4" d="M143.471 31.526C143.393 31.5266 143.319 31.4977 143.262 31.445C143.2 31.3894 143.163 31.3116 143.158 31.2286C143.154 31.1456 143.182 31.0643 143.238 31.0023L145.142 28.9079C145.197 28.8463 145.275 28.8091 145.358 28.8047C145.441 28.8002 145.523 28.8288 145.584 28.8841C145.616 28.9113 145.641 28.9445 145.659 28.9817C145.677 29.0188 145.688 29.0592 145.69 29.1005C145.692 29.1417 145.686 29.183 145.672 29.2219C145.658 29.2608 145.636 29.2965 145.608 29.3268L143.704 31.4212C143.675 31.4545 143.639 31.4812 143.599 31.4992C143.559 31.5173 143.515 31.5264 143.471 31.526Z" fill="white"/>
</g>
<g opacity="0.7">
<path opacity="0.7" d="M119.505 26.9032C119.544 27.2084 119.517 27.5184 119.425 27.8122C119.334 28.106 119.18 28.3766 118.974 28.6056C118.769 28.8346 118.516 29.0166 118.234 29.1393C117.952 29.262 117.647 29.3224 117.339 29.3165C116.68 29.3025 116.048 29.0503 115.561 28.6067C115.074 28.163 114.763 27.5579 114.688 26.9032C114.649 26.5982 114.676 26.2884 114.767 25.9948C114.859 25.7013 115.013 25.431 115.218 25.2023C115.424 24.9737 115.676 24.7921 115.959 24.67C116.241 24.5478 116.546 24.488 116.853 24.4946C117.512 24.5085 118.143 24.76 118.63 25.2027C119.117 25.6454 119.428 26.2493 119.505 26.9032Z" fill="white"/>
<path opacity="0.7" d="M117.567 31.7871C117.516 31.7874 117.467 31.7684 117.429 31.7341C117.391 31.6997 117.368 31.6524 117.363 31.6015L117.249 30.5019C117.243 30.4471 117.26 30.3923 117.294 30.3496C117.329 30.3068 117.379 30.2794 117.434 30.2734C117.489 30.2681 117.544 30.2846 117.587 30.3194C117.629 30.3541 117.657 30.4043 117.663 30.4591L117.772 31.5587C117.775 31.5856 117.772 31.6127 117.764 31.6385C117.756 31.6644 117.743 31.6884 117.726 31.7092C117.709 31.73 117.687 31.7472 117.664 31.7597C117.64 31.7723 117.613 31.78 117.586 31.7824L117.567 31.7871Z" fill="white"/>
<path opacity="0.7" d="M116.734 23.5381C116.683 23.5371 116.633 23.5171 116.596 23.482C116.558 23.4469 116.534 23.399 116.53 23.3477L116.42 22.2529C116.415 22.198 116.431 22.1433 116.466 22.1005C116.501 22.0578 116.551 22.0304 116.606 22.0244C116.633 22.0218 116.66 22.0245 116.686 22.0324C116.712 22.0404 116.736 22.0533 116.756 22.0706C116.777 22.0879 116.794 22.1091 116.807 22.133C116.82 22.1569 116.827 22.1831 116.83 22.21L116.944 23.3096C116.947 23.3365 116.944 23.3636 116.936 23.3895C116.928 23.4153 116.915 23.4393 116.898 23.4601C116.88 23.4809 116.859 23.4981 116.835 23.5107C116.811 23.5232 116.785 23.5309 116.758 23.5333L116.734 23.5381Z" fill="white"/>
<path opacity="0.7" d="M113.545 27.1129H112.446C112.391 27.1116 112.339 27.089 112.301 27.0499C112.262 27.0107 112.241 26.9581 112.241 26.9034C112.241 26.8491 112.263 26.7971 112.301 26.7587C112.339 26.7203 112.391 26.6987 112.446 26.6987H113.545C113.599 26.6987 113.652 26.7203 113.69 26.7587C113.728 26.7971 113.75 26.8491 113.75 26.9034C113.75 26.9581 113.728 27.0107 113.69 27.0499C113.652 27.089 113.6 27.1116 113.545 27.1129Z" fill="white"/>
<path opacity="0.7" d="M121.77 27.1128H120.685C120.63 27.1116 120.578 27.089 120.54 27.0498C120.502 27.0107 120.48 26.9581 120.48 26.9034C120.48 26.8491 120.502 26.7971 120.54 26.7587C120.579 26.7203 120.631 26.6987 120.685 26.6987H121.785C121.839 26.6987 121.891 26.7203 121.929 26.7587C121.968 26.7971 121.989 26.8491 121.989 26.9034C121.989 26.9317 121.984 26.9598 121.973 26.9858C121.961 27.0119 121.945 27.0354 121.925 27.055C121.904 27.0745 121.88 27.0898 121.853 27.0997C121.827 27.1097 121.799 27.1141 121.77 27.1128Z" fill="white"/>
<path opacity="0.7" d="M120.733 30.4159C120.682 30.415 120.633 30.3965 120.595 30.3636L119.738 29.5877C119.701 29.5494 119.681 29.4986 119.68 29.4456C119.679 29.3926 119.699 29.3413 119.734 29.3021C119.77 29.2628 119.819 29.2385 119.872 29.2341C119.925 29.2297 119.977 29.2455 120.019 29.2783L120.871 30.0542C120.91 30.0934 120.932 30.1464 120.932 30.2017C120.932 30.257 120.91 30.31 120.871 30.3493C120.835 30.3885 120.786 30.4124 120.733 30.4159Z" fill="white"/>
<path opacity="0.7" d="M114.312 24.5854C114.26 24.584 114.211 24.5637 114.174 24.5283L113.322 23.7524C113.302 23.7343 113.285 23.7124 113.274 23.688C113.262 23.6636 113.256 23.6372 113.254 23.6102C113.253 23.5832 113.257 23.5563 113.266 23.5308C113.275 23.5054 113.289 23.4821 113.307 23.4621C113.325 23.442 113.347 23.4258 113.372 23.4143C113.396 23.4027 113.423 23.3961 113.449 23.3948C113.476 23.3935 113.503 23.3974 113.529 23.4065C113.554 23.4156 113.578 23.4296 113.598 23.4478L114.454 24.2237C114.485 24.2524 114.506 24.2896 114.515 24.3304C114.524 24.3713 114.521 24.4139 114.505 24.4529C114.49 24.4918 114.463 24.5252 114.429 24.5489C114.394 24.5725 114.353 24.5852 114.312 24.5854Z" fill="white"/>
<path opacity="0.7" d="M114.126 30.4163C114.075 30.4162 114.026 30.3976 113.988 30.364C113.969 30.3449 113.954 30.3223 113.943 30.2974C113.933 30.2725 113.927 30.2458 113.927 30.2188C113.927 30.1918 113.933 30.1651 113.943 30.1401C113.954 30.1152 113.969 30.0926 113.988 30.0736L114.688 29.2977C114.707 29.2786 114.729 29.2634 114.754 29.253C114.779 29.2426 114.806 29.2373 114.833 29.2373C114.86 29.2373 114.887 29.2426 114.911 29.253C114.936 29.2634 114.959 29.2786 114.978 29.2977C115.017 29.3369 115.039 29.39 115.039 29.4453C115.039 29.5006 115.017 29.5536 114.978 29.5928L114.278 30.3687C114.236 30.4036 114.181 30.4207 114.126 30.4163Z" fill="white"/>
<path opacity="0.7" d="M119.372 24.5852C119.346 24.5855 119.32 24.5806 119.297 24.5708C119.273 24.561 119.251 24.5465 119.233 24.5281C119.214 24.5091 119.199 24.4865 119.189 24.4616C119.178 24.4366 119.173 24.4099 119.173 24.3829C119.173 24.356 119.178 24.3292 119.189 24.3043C119.199 24.2794 119.214 24.2568 119.233 24.2378L119.933 23.4619C119.972 23.4294 120.021 23.4119 120.071 23.4126C120.122 23.4133 120.17 23.4322 120.208 23.4658C120.245 23.4993 120.269 23.5453 120.276 23.5953C120.282 23.6453 120.271 23.696 120.243 23.738L119.543 24.5138C119.522 24.5387 119.496 24.5582 119.466 24.5706C119.436 24.5831 119.404 24.5881 119.372 24.5852Z" fill="white"/>
</g>
<path d="M29.4311 26.2893C29.3557 25.6819 29.064 25.1219 28.6094 24.7119C28.1549 24.3019 27.5679 24.0694 26.9559 24.0569C26.673 24.0569 26.393 24.1135 26.1324 24.2235C25.8668 23.7671 25.4882 23.3868 25.033 23.1191C24.5778 22.8515 24.0614 22.7056 23.5334 22.6955C22.933 22.6766 22.3476 22.8853 21.8947 23.28C21.4418 23.6746 21.1549 24.2259 21.0915 24.8232C20.8059 24.838 20.5263 24.9116 20.2704 25.0393C20.0144 25.167 19.7876 25.3461 19.604 25.5654C19.4204 25.7848 19.284 26.0396 19.2033 26.314C19.1226 26.5885 19.0995 26.8766 19.1352 27.1604C19.2098 27.7966 19.5122 28.3842 19.9864 28.8147C20.4607 29.2452 21.0747 29.4894 21.7151 29.5023H29.1645C29.3765 29.5068 29.587 29.4654 29.7816 29.3812C29.9763 29.2969 30.1504 29.1717 30.2923 29.014C30.4341 28.8563 30.5403 28.67 30.6036 28.4676C30.6669 28.2652 30.6859 28.0515 30.6591 27.8411C30.6163 27.4947 30.4791 27.1668 30.2625 26.8931C30.046 26.6195 29.7583 26.4106 29.4311 26.2893Z" fill="white"/>
<path d="M22.0104 22.2962C21.6369 22.4805 21.3065 22.7415 21.0407 23.0622C20.775 23.3829 20.5799 23.7561 20.4682 24.1573C19.9649 24.2737 19.5076 24.5371 19.1544 24.9142C18.7026 24.5446 18.4124 24.0136 18.3452 23.4338C18.3123 23.1739 18.3359 22.91 18.4141 22.66C18.4924 22.41 18.6237 22.1799 18.799 21.9852C18.9742 21.7905 19.1894 21.6358 19.4298 21.5318C19.6702 21.4278 19.9302 21.3767 20.1921 21.3822C20.5451 21.3844 20.8928 21.468 21.2081 21.6266C21.5235 21.7851 21.7981 22.0142 22.0104 22.2962Z" fill="white"/>
<path d="M20.1063 20.5775C20.0627 20.5777 20.0206 20.5618 19.988 20.5328C19.9555 20.5038 19.9349 20.4637 19.9302 20.4204L19.8397 19.4684C19.8371 19.4455 19.8391 19.4223 19.8457 19.4002C19.8522 19.3781 19.8631 19.3576 19.8778 19.3398C19.8925 19.322 19.9106 19.3074 19.931 19.2967C19.9515 19.2861 19.9738 19.2797 19.9968 19.278C20.0197 19.2753 20.0429 19.2774 20.065 19.2839C20.0871 19.2904 20.1076 19.3014 20.1254 19.316C20.1432 19.3307 20.1578 19.3488 20.1684 19.3692C20.1791 19.3897 20.1855 19.4121 20.1872 19.4351L20.2824 20.3871C20.2851 20.4102 20.2831 20.4337 20.2766 20.456C20.2701 20.4784 20.2592 20.4993 20.2446 20.5174C20.23 20.5356 20.212 20.5507 20.1915 20.5618C20.171 20.5729 20.1485 20.5798 20.1253 20.5822L20.1063 20.5775Z" fill="white"/>
<path d="M17.3931 23.6048H16.4411C16.418 23.6048 16.3951 23.6002 16.3737 23.5913C16.3523 23.5825 16.3329 23.5695 16.3165 23.5532C16.3002 23.5368 16.2872 23.5174 16.2784 23.496C16.2695 23.4747 16.265 23.4518 16.265 23.4286C16.2643 23.4053 16.2684 23.3821 16.277 23.3605C16.2856 23.3388 16.2986 23.3191 16.3151 23.3026C16.3316 23.2861 16.3512 23.2732 16.3729 23.2646C16.3946 23.256 16.4178 23.2519 16.4411 23.2525H17.3931C17.4398 23.2525 17.4846 23.2711 17.5176 23.3041C17.5506 23.3371 17.5692 23.3819 17.5692 23.4286C17.568 23.475 17.5491 23.5191 17.5163 23.5518C17.4835 23.5846 17.4394 23.6036 17.3931 23.6048Z" fill="white"/>
<path d="M18.0453 21.4483C18.0018 21.4488 17.9595 21.4336 17.9263 21.4055L17.198 20.7438C17.1633 20.7123 17.1426 20.6682 17.1403 20.6214C17.1381 20.5745 17.1546 20.5287 17.1861 20.4939C17.2177 20.4592 17.2618 20.4385 17.3086 20.4362C17.3555 20.434 17.4013 20.4505 17.436 20.482L18.1643 21.1437C18.1969 21.1766 18.2151 21.2211 18.2151 21.2674C18.2151 21.3138 18.1969 21.3582 18.1643 21.3912C18.1492 21.4081 18.131 21.4219 18.1105 21.4317C18.0901 21.4415 18.0679 21.4471 18.0453 21.4483Z" fill="white"/>
<path d="M17.869 26.4178C17.847 26.4181 17.8252 26.4141 17.8048 26.4059C17.7843 26.3978 17.7657 26.3856 17.75 26.3702C17.7175 26.3373 17.6992 26.2928 17.6992 26.2465C17.6992 26.2001 17.7175 26.1557 17.75 26.1227L18.345 25.4611C18.3793 25.4293 18.4244 25.4116 18.4712 25.4116C18.5179 25.4116 18.563 25.4293 18.5973 25.4611C18.6302 25.4948 18.6486 25.5401 18.6486 25.5872C18.6486 25.6343 18.6302 25.6796 18.5973 25.7133L18.0023 26.375C17.9844 26.3911 17.9632 26.4032 17.9402 26.4106C17.9173 26.418 17.893 26.4205 17.869 26.4178Z" fill="white"/>
<path d="M22.348 21.4486C22.314 21.4497 22.2804 21.4405 22.2515 21.4224C22.2226 21.4042 22.1999 21.3779 22.1861 21.3467C22.1723 21.3155 22.1681 21.2809 22.174 21.2474C22.18 21.2138 22.1958 21.1828 22.2195 21.1583L22.8145 20.4966C22.8475 20.4641 22.892 20.4458 22.9383 20.4458C22.9846 20.4458 23.0291 20.4641 23.062 20.4966C23.0935 20.5301 23.111 20.5744 23.111 20.6204C23.111 20.6663 23.0935 20.7106 23.062 20.7441L22.467 21.4058C22.4336 21.4335 22.3915 21.4487 22.348 21.4486Z" fill="white"/>
<path d="M37.1661 58.5194H18.7163C18.4708 58.5132 18.2357 58.4189 18.054 58.2537C17.8722 58.0885 17.7559 57.8635 17.7263 57.6197L17.5406 55.7681C17.527 55.6545 17.5379 55.5394 17.5725 55.4304C17.6071 55.3215 17.6648 55.2212 17.7415 55.1364C17.8181 55.0516 17.9121 54.9842 18.0171 54.9388C18.122 54.8934 18.2355 54.871 18.3498 54.8732H36.7996C37.0438 54.8794 37.2777 54.9732 37.4586 55.1374C37.6395 55.3017 37.7553 55.5255 37.7849 55.7681L37.9705 57.6197C37.9848 57.7332 37.9746 57.8485 37.9406 57.9577C37.9066 58.0669 37.8495 58.1675 37.7733 58.2528C37.697 58.3381 37.6033 58.406 37.4986 58.452C37.3939 58.498 37.2805 58.5209 37.1661 58.5194Z" fill="white"/>
<path d="M68.9248 59.3334H48.6758C48.4066 59.3273 48.1486 59.2243 47.9492 59.0433C47.7499 58.8623 47.6225 58.6154 47.5905 58.3481L47.3858 56.3156C47.3701 56.1909 47.3813 56.0643 47.4189 55.9444C47.4564 55.8244 47.5193 55.714 47.6033 55.6205C47.6873 55.5271 47.7904 55.4528 47.9056 55.4027C48.0209 55.3526 48.1455 55.3279 48.2712 55.3302H68.525C68.7942 55.3363 69.0521 55.4394 69.2515 55.6204C69.4508 55.8014 69.5782 56.0482 69.6102 56.3156L69.8149 58.3481C69.8299 58.473 69.8179 58.5997 69.7798 58.7196C69.7417 58.8395 69.6784 58.9499 69.594 59.0432C69.5097 59.1366 69.4063 59.2108 69.2909 59.2609C69.1754 59.3109 69.0506 59.3356 68.9248 59.3334Z" fill="#0984C0"/>
<path d="M98.7225 58.5194H80.2728C80.0278 58.513 79.7933 58.4186 79.6123 58.2533C79.4313 58.0881 79.316 57.8631 79.2874 57.6197L79.1018 55.7681C79.0874 55.6548 79.0976 55.5398 79.1317 55.4308C79.1657 55.3218 79.2229 55.2215 79.2992 55.1365C79.3755 55.0516 79.4693 54.9842 79.574 54.9387C79.6788 54.8933 79.7921 54.8709 79.9062 54.8732H98.356C98.6006 54.8784 98.835 54.9719 99.0161 55.1363C99.1972 55.3008 99.3127 55.5251 99.3413 55.7681L99.5317 57.6197C99.5453 57.7335 99.5344 57.8488 99.4998 57.958C99.4652 58.0672 99.4076 58.1678 99.331 58.253C99.2544 58.3381 99.1605 58.406 99.0556 58.4519C98.9506 58.4978 98.8371 58.5208 98.7225 58.5194Z" fill="white"/>
<path opacity="0.7" d="M129.501 58.5194H111.051C110.806 58.513 110.571 58.4186 110.39 58.2533C110.209 58.0881 110.094 57.8631 110.066 57.6197L109.88 55.7681C109.865 55.6548 109.876 55.5398 109.91 55.4308C109.944 55.3218 110.001 55.2215 110.077 55.1365C110.154 55.0516 110.247 54.9842 110.352 54.9387C110.457 54.8933 110.57 54.8709 110.684 54.8732H129.134C129.379 54.8784 129.613 54.9719 129.794 55.1363C129.975 55.3008 130.091 55.5251 130.119 55.7681L130.31 57.6197C130.323 57.7335 130.312 57.8488 130.278 57.958C130.243 58.0672 130.186 58.1678 130.109 58.253C130.032 58.3381 129.939 58.406 129.834 58.4519C129.729 58.4978 129.615 58.5208 129.501 58.5194Z" fill="white"/>
<path opacity="0.4" d="M160.279 58.5194H141.834C141.588 58.5141 141.352 58.4202 141.17 58.2548C140.988 58.0895 140.872 57.8639 140.844 57.6197L140.658 55.7681C140.644 55.6548 140.654 55.5398 140.688 55.4308C140.722 55.3218 140.779 55.2215 140.855 55.1365C140.932 55.0516 141.025 54.9842 141.13 54.9387C141.235 54.8933 141.348 54.8709 141.462 54.8732H159.912C160.157 54.8792 160.391 54.9729 160.573 55.1371C160.755 55.3013 160.872 55.5251 160.902 55.7681L161.088 57.6197C161.101 57.7335 161.091 57.8488 161.056 57.958C161.021 58.0672 160.964 58.1678 160.887 58.253C160.811 58.3381 160.717 58.406 160.612 58.4519C160.507 58.4978 160.393 58.5208 160.279 58.5194Z" fill="white"/>
<path d="M150.197 41.8218C151.53 44.0352 152.734 46.2438 153.881 48.5334C155.043 50.8422 156.078 53.213 156.98 55.6353C157.094 55.9447 157.204 56.2589 157.304 56.5873L157.461 57.0633L157.542 57.3013L157.599 57.4917C157.599 57.5726 157.642 57.6535 157.661 57.7345C157.86 58.7611 157.768 59.8232 157.394 60.7999C156.867 62.1803 156.119 63.4663 155.181 64.6079C153.537 66.6513 151.652 68.4892 149.569 70.0819L147.774 68.2255C149.255 66.3386 150.619 64.3627 151.858 62.3088C152.138 61.8292 152.393 61.3351 152.62 60.8285C152.825 60.3954 152.984 59.9424 153.096 59.4766C153.186 59.0863 153.143 58.7769 153.096 58.8435V58.8102L153.01 58.6103L152.848 58.2057C152.739 57.9391 152.625 57.6678 152.501 57.3965C151.549 55.2307 150.426 53.0554 149.274 50.8991C148.122 48.7428 146.894 46.5723 145.723 44.4636L150.197 41.8218Z" fill="#FF8B7B"/>
<path d="M148.455 67.3926L145.746 69.7726L149.516 72.1526C149.516 72.1526 150.625 70.3533 150.578 68.6873L148.455 67.3926Z" fill="#FF8B7B"/>
<path d="M144.756 73.3328L147.641 75.1892L149.516 72.1666L145.746 69.7866L144.756 73.3328Z" fill="#FF8B7B"/>
<path d="M134.341 26.3326C134.289 26.6039 134.099 26.8086 133.922 26.7658C133.746 26.723 133.642 26.4802 133.694 26.2089C133.746 25.9375 133.937 25.7329 134.113 25.7757C134.289 25.8185 134.394 26.0613 134.341 26.3326Z" fill="#263238"/>
<path d="M134.127 26.8042C133.641 27.5743 133.05 28.2728 132.371 28.8796C132.531 29.0499 132.726 29.1829 132.944 29.2693C133.161 29.3557 133.394 29.3932 133.627 29.3794L134.127 26.8042Z" fill="#FF5652"/>
<path d="M135.631 25.0139C135.672 25.0143 135.711 24.999 135.741 24.971C135.771 24.9399 135.788 24.898 135.788 24.8544C135.788 24.8108 135.771 24.7689 135.741 24.7378C135.568 24.5439 135.351 24.3949 135.108 24.3037C134.865 24.2125 134.604 24.1818 134.346 24.2142C134.325 24.2176 134.305 24.2252 134.288 24.2365C134.27 24.2477 134.255 24.2625 134.243 24.2798C134.231 24.2971 134.222 24.3167 134.218 24.3373C134.214 24.3579 134.214 24.3792 134.218 24.3998C134.225 24.4421 134.248 24.4799 134.283 24.5048C134.318 24.5298 134.361 24.54 134.403 24.5331C134.607 24.5123 134.814 24.5403 135.005 24.6148C135.196 24.6893 135.367 24.8081 135.503 24.9615C135.519 24.9787 135.539 24.9923 135.562 25.0013C135.584 25.0103 135.607 25.0146 135.631 25.0139Z" fill="#263238"/>
<path d="M140.867 29.6221C140.391 32.1401 139.882 36.7621 141.643 38.4328C141.643 38.4328 140.953 40.9842 136.279 40.9842C131.133 40.9842 134.018 38.8232 134.018 38.8232C136.198 36.9192 136.745 34.9485 136.26 32.9969L140.867 29.6221Z" fill="#FF8B7B"/>
<path d="M142.219 39.1938C142.481 38.2418 142.767 37.1661 141.938 36.9138C141.029 36.6377 136.193 36.7234 134.599 37.5564C133.004 38.3894 133.647 40.1982 133.647 40.1982L142.219 39.1938Z" fill="#263238"/>
<path d="M158.917 155.138C158.779 155.188 158.631 155.21 158.484 155.201C158.337 155.193 158.193 155.155 158.061 155.09C158.01 155.043 157.976 154.98 157.962 154.912C157.949 154.844 157.956 154.773 157.984 154.71C158 154.657 158.026 154.608 158.062 154.567C158.099 154.526 158.144 154.493 158.194 154.472C158.67 154.248 159.727 154.686 159.769 154.705C159.784 154.711 159.796 154.722 159.804 154.735C159.813 154.748 159.817 154.763 159.817 154.779C159.817 154.794 159.813 154.81 159.804 154.823C159.796 154.836 159.784 154.846 159.769 154.852C159.496 154.978 159.211 155.073 158.917 155.138ZM158.356 154.586L158.261 154.619C158.231 154.632 158.205 154.651 158.184 154.675C158.162 154.699 158.146 154.727 158.137 154.757C158.094 154.905 158.137 154.952 158.165 154.967C158.351 155.124 159.041 154.967 159.522 154.786C159.153 154.631 158.755 154.563 158.356 154.586Z" fill="#0984C0"/>
<path d="M159.755 154.857H159.717C159.327 154.743 158.494 154.153 158.484 153.762C158.484 153.701 158.504 153.642 158.543 153.594C158.581 153.547 158.634 153.514 158.694 153.5C158.752 153.479 158.815 153.471 158.878 153.475C158.94 153.48 159.001 153.499 159.055 153.529C159.531 153.762 159.803 154.714 159.817 154.757C159.821 154.768 159.822 154.779 159.82 154.79C159.819 154.801 159.816 154.812 159.81 154.822C159.804 154.831 159.796 154.839 159.786 154.845C159.777 154.852 159.766 154.856 159.755 154.857ZM158.803 153.643H158.765C158.665 153.677 158.665 153.729 158.665 153.748C158.665 153.981 159.222 154.443 159.617 154.633C159.504 154.262 159.286 153.931 158.989 153.681C158.956 153.66 158.919 153.646 158.881 153.639C158.842 153.633 158.803 153.634 158.765 153.643H158.803Z" fill="#0984C0"/>
<path d="M133.537 156.823C133.094 156.823 132.67 156.761 132.528 156.561C132.49 156.51 132.47 156.448 132.47 156.385C132.47 156.322 132.49 156.26 132.528 156.209C132.555 156.161 132.592 156.119 132.636 156.086C132.68 156.054 132.731 156.031 132.785 156.018C133.361 155.861 134.56 156.547 134.613 156.575C134.627 156.584 134.638 156.597 134.644 156.613C134.651 156.628 134.653 156.645 134.651 156.661C134.648 156.677 134.641 156.692 134.63 156.704C134.619 156.716 134.605 156.724 134.589 156.728C134.241 156.789 133.889 156.821 133.537 156.823ZM132.989 156.157C132.937 156.149 132.884 156.149 132.832 156.157C132.799 156.163 132.768 156.176 132.741 156.196C132.713 156.215 132.691 156.241 132.675 156.271C132.618 156.371 132.637 156.418 132.675 156.447C132.837 156.671 133.708 156.675 134.346 156.585C133.93 156.358 133.474 156.212 133.004 156.157H132.989Z" fill="#0984C0"/>
<path d="M134.589 156.714H134.556C134.142 156.528 133.318 155.786 133.38 155.395C133.38 155.305 133.461 155.191 133.685 155.167C133.766 155.159 133.848 155.168 133.925 155.192C134.003 155.217 134.075 155.257 134.137 155.31C134.451 155.682 134.638 156.146 134.67 156.633C134.672 156.647 134.67 156.662 134.664 156.676C134.658 156.689 134.649 156.701 134.637 156.709C134.622 156.715 134.605 156.717 134.589 156.714ZM133.751 155.319H133.704C133.556 155.319 133.547 155.395 133.542 155.414C133.504 155.648 134.065 156.233 134.494 156.485C134.45 156.09 134.283 155.719 134.018 155.424C133.942 155.364 133.848 155.332 133.751 155.333V155.319Z" fill="#0984C0"/>
<path d="M138.373 156.647H134.932L134.589 148.679H138.03L138.373 156.647Z" fill="#FF8B7B"/>
<path d="M163.591 153.943L160.226 154.672L156.851 147.251L160.217 146.522L163.591 153.943Z" fill="#FF8B7B"/>
<path d="M159.907 154.334L163.682 153.52C163.749 153.505 163.819 153.513 163.88 153.544C163.942 153.574 163.991 153.624 164.02 153.687L165.329 156.543C165.361 156.612 165.376 156.688 165.374 156.764C165.373 156.84 165.354 156.915 165.319 156.982C165.284 157.05 165.234 157.109 165.173 157.155C165.112 157.201 165.042 157.232 164.967 157.247C163.644 157.509 162.987 157.571 161.326 157.928C160.302 158.151 157.994 158.713 156.566 159.018C155.138 159.322 154.662 157.966 155.219 157.718C157.684 156.59 158.717 155.595 159.384 154.672C159.51 154.498 159.697 154.378 159.907 154.334Z" fill="#263238"/>
<path d="M134.965 156.238H138.721C138.789 156.237 138.856 156.26 138.909 156.302C138.963 156.345 139 156.404 139.016 156.471L139.696 159.532C139.713 159.604 139.714 159.68 139.698 159.752C139.682 159.825 139.65 159.893 139.605 159.952C139.559 160.011 139.501 160.059 139.434 160.093C139.368 160.126 139.295 160.144 139.22 160.146C137.864 160.122 135.888 160.041 134.203 160.041C132.209 160.041 132.242 160.151 129.919 160.151C128.491 160.151 128.115 158.723 128.706 158.594C131.395 158.004 131.838 157.942 134.165 156.504C134.404 156.347 134.68 156.255 134.965 156.238Z" fill="#263238"/>
<path d="M131.423 45.6773C130.11 48.1097 128.729 50.4373 127.249 52.7412C125.764 55.085 124.147 57.3432 122.408 59.5051C122.189 59.7812 121.932 60.0525 121.704 60.3239L121.347 60.738L120.923 61.1711C120.642 61.4567 120.385 61.6852 120.109 61.9375L119.309 62.6325C118.243 63.5321 117.167 64.3699 116.082 65.1933C113.907 66.8355 111.684 68.3778 109.385 69.8391L107.761 67.8256C109.637 65.9216 111.569 64.0176 113.473 62.1469C114.425 61.1949 115.377 60.281 116.272 59.3528C116.715 58.8768 117.162 58.4008 117.534 57.9867L117.791 57.6773L118.072 57.3108C118.257 57.0585 118.448 56.8348 118.629 56.5587C120.109 54.4929 121.485 52.2509 122.865 49.9947C124.245 47.7384 125.573 45.4346 126.873 43.1641L131.423 45.6773Z" fill="#FF8B7B"/>
<path d="M148.864 39.2132C152.101 39.9557 155.88 51.5178 155.88 51.5178L150.363 55.1259C150.363 55.1259 146.855 49.7375 145.032 45.8962C143.119 41.8883 145.565 38.4611 148.864 39.2132Z" fill="#0984C0"/>
<g opacity="0.7">
<path opacity="0.7" d="M148.864 39.2132C152.101 39.9557 155.88 51.5178 155.88 51.5178L150.363 55.1259C150.363 55.1259 146.855 49.7375 145.032 45.8962C143.119 41.8883 145.565 38.4611 148.864 39.2132Z" fill="white"/>
</g>
<path opacity="0.5" d="M147.031 45.1487C146.751 44.7822 145.984 45.6247 145.408 46.6862C146.208 48.2665 147.217 50.0182 148.112 51.5128C148.669 48.6235 147.76 46.0769 147.031 45.1487Z" fill="#0984C0"/>
<path d="M129.586 39.3943C129.586 39.3943 125.926 43.5308 129.381 69.13H147.783C147.912 66.3074 146.137 52.5272 148.864 39.2134C146.828 38.8215 144.769 38.5623 142.7 38.4376C140.095 38.2851 137.484 38.2851 134.879 38.4376C133.092 38.6176 131.323 38.9375 129.586 39.3943Z" fill="#0984C0"/>
<path opacity="0.7" d="M129.586 39.3943C129.586 39.3943 125.926 43.5308 129.381 69.13H147.783C147.912 66.3074 146.137 52.5272 148.864 39.2134C146.828 38.8215 144.769 38.5623 142.7 38.4376C140.095 38.2851 137.484 38.2851 134.879 38.4376C133.092 38.6176 131.323 38.9375 129.586 39.3943Z" fill="white"/>
<path opacity="0.5" d="M128.03 46.4341C127.84 49.4934 127.84 52.5615 128.03 55.6209C130.372 54.1167 132.523 50.1136 132.314 47.467L128.03 46.4341Z" fill="#0984C0"/>
<path d="M59.7474 39.8986L59.1905 40.803L54.8018 37.7519L55.0874 37.2949L59.7474 39.8986Z" fill="#0984C0"/>
<path d="M59.895 39.6655L59.043 41.0364L102.102 70.4865L105.439 65.0982L59.895 39.6655Z" fill="#263238"/>
<path opacity="0.2" d="M59.7377 39.9224L59.2046 40.7792L102.721 69.482L104.815 66.1024L59.7377 39.9224Z" fill="white"/>
<path d="M59.5567 40.208L59.3806 40.4936L103.42 68.3539L104.115 67.2258L59.5567 40.208Z" fill="#263238"/>
<path d="M106.096 75.418C105.627 75.4183 105.167 75.2881 104.768 75.0419L105.077 74.5659C105.318 74.7118 105.588 74.8047 105.868 74.8384C106.147 74.872 106.431 74.8457 106.7 74.7611C107.289 74.5752 107.791 74.1853 108.118 73.6617C108.444 73.1381 108.573 72.5152 108.48 71.9051C108.436 71.6272 108.333 71.362 108.178 71.1272C108.023 70.8924 107.819 70.6935 107.581 70.5437L103.616 68.0828L103.925 67.583L107.89 70.0439C108.199 70.2369 108.463 70.4933 108.665 70.7961C108.867 71.099 109.002 71.4413 109.061 71.8004C109.176 72.5503 109.02 73.3167 108.62 73.9616C108.221 74.6065 107.604 75.0875 106.881 75.318C106.626 75.3898 106.361 75.4235 106.096 75.418Z" fill="#263238"/>
<path d="M134.632 41.6788C136.441 46.0628 125.493 57.0108 125.493 57.0108L119.828 52.7268C119.828 52.7268 123.746 46.9862 125.359 43.0449C127.349 38.1897 133.251 38.3421 134.632 41.6788Z" fill="#0984C0"/>
<path opacity="0.7" d="M134.632 41.6788C136.441 46.0628 125.493 57.0108 125.493 57.0108L119.828 52.7268C119.828 52.7268 123.746 46.9862 125.359 43.0449C127.349 38.1897 133.251 38.3421 134.632 41.6788Z" fill="white"/>
<path d="M121.637 51.137C122.832 52.3032 125.488 54.8355 126.706 55.559C126.793 55.6125 126.856 55.6965 126.883 55.7944C126.911 55.8923 126.9 55.9969 126.854 56.0874C126.449 56.8442 125.531 57.9533 124.921 58.0438C124.203 58.1532 118.652 54.488 118.552 53.736C118.491 53.2266 119.661 51.9271 120.418 51.1513C120.497 51.0697 120.591 51.0046 120.695 50.9597C120.799 50.9148 120.911 50.891 121.025 50.8897C121.138 50.8884 121.25 50.9095 121.356 50.952C121.461 50.9944 121.556 51.0573 121.637 51.137Z" fill="#263238"/>
<path d="M149.288 52.7508C150.778 52.0035 154.048 50.3184 155.119 49.4188C155.198 49.3541 155.298 49.322 155.4 49.3291C155.502 49.3362 155.597 49.3819 155.666 49.4568C156.252 50.0852 156.999 51.3132 156.89 51.9178C156.756 52.6365 151.477 56.6778 150.74 56.535C150.235 56.4303 149.393 54.8975 148.902 53.9313C148.848 53.8288 148.816 53.7165 148.806 53.6011C148.796 53.4858 148.81 53.3697 148.846 53.2596C148.882 53.1496 148.939 53.0478 149.015 52.9604C149.091 52.873 149.184 52.8017 149.288 52.7508Z" fill="#263238"/>
<path d="M108.885 67.0308L105.419 68.116L106.99 71.5337C106.99 71.5337 110.003 71.1339 110.598 68.6777L108.885 67.0308Z" fill="#FF8B7B"/>
<path d="M103.844 69.9345L105.105 72.1955L106.99 71.5339L105.42 68.1162L103.844 69.9345Z" fill="#FF8B7B"/>
<path opacity="0.2" d="M134.589 148.679L134.765 152.787H138.211L138.035 148.679H134.589Z" fill="black"/>
<path opacity="0.2" d="M160.217 146.527L156.851 147.256L158.593 151.078L161.959 150.35L160.217 146.527Z" fill="black"/>
<path d="M143.533 27.5131C142.681 30.8451 142.348 32.8015 140.329 34.1771C137.283 36.2668 133.451 33.9344 133.299 30.4405C133.166 27.2942 134.584 22.4152 138.116 21.7202C138.896 21.5604 139.703 21.6033 140.461 21.8448C141.22 22.0864 141.903 22.5184 142.447 23.0997C142.99 23.681 143.376 24.392 143.566 25.1647C143.756 25.9374 143.745 26.746 143.533 27.5131Z" fill="#FF8B7B"/>
<path d="M135.793 28.308C135.521 27.7706 135.43 27.1598 135.533 26.5664C135.636 25.973 135.928 25.4286 136.364 25.0141C135.308 24.4667 134.332 22.5865 135.351 21.5012C132.614 20.8682 134.127 18.0264 138.378 18.3025C142.629 18.5786 139.301 20.3731 139.301 20.3731C139.301 20.3731 148.45 21.0824 145.147 24.4144C146.598 25.2854 146.732 28.2224 144.671 29.6266C141.339 31.9114 142.372 34.4627 139.834 34.0058C137.521 33.5869 135.522 30.9974 135.793 28.308Z" fill="#263238"/>
<path d="M137.097 27.8131C137.033 28.1953 136.889 28.5594 136.673 28.8812C136.457 29.203 136.175 29.475 135.845 29.679C134.993 30.155 134.489 29.7932 134.475 28.9079C134.475 28.113 134.832 26.823 135.669 26.5279C136.507 26.2328 137.207 26.9277 137.097 27.8131Z" fill="#FF8B7B"/>
<path d="M135.917 69.1298C135.917 69.1298 139.82 95.424 141.962 105.272C144.314 116.059 156.866 150.64 156.866 150.64L163.02 149.307C163.02 149.307 153.624 116.939 152.287 106.253C150.83 94.6576 147.788 69.125 147.788 69.125L135.917 69.1298Z" fill="#263238"/>
<path d="M155.214 147.879C155.186 147.879 156.533 150.811 156.533 150.811L163.463 149.312L162.706 146.522L155.214 147.879Z" fill="#0984C0"/>
<path opacity="0.7" d="M155.214 147.879C155.186 147.879 156.533 150.811 156.533 150.811L163.463 149.312L162.706 146.522L155.214 147.879Z" fill="white"/>
<path opacity="0.3" d="M138.378 78.4978C142.895 79.3832 142.414 96.2193 141.872 104.878C140.572 98.7564 138.663 86.9801 137.364 78.6216C137.677 78.4641 138.036 78.4204 138.378 78.4978Z" fill="black"/>
<path d="M129.382 69.1299C129.382 69.1299 128.906 94.8339 129.286 105.344C129.672 116.259 133.485 151.992 133.485 151.992H139.316C139.316 151.992 139.53 116.896 139.792 106.177C140.072 94.4959 141.486 69.1299 141.486 69.1299H129.382Z" fill="#263238"/>
<path d="M132.361 148.959L132.695 152.092H139.782L139.973 149.236L132.361 148.959Z" fill="#0984C0"/>
<path opacity="0.7" d="M132.361 148.959L132.695 152.092H139.782L139.973 149.236L132.361 148.959Z" fill="white"/>
</svg>
