<svg width="100" height="20" viewBox="0 0 100 20" fill="none" xmlns="http://www.w3.org/2000/svg">
<path d="M52.1333 8.36683C51.5583 5.49183 49.0333 3.3335 46 3.3335C43.5917 3.3335 41.5 4.70016 40.4583 6.70016C37.95 6.96683 36 9.09183 36 11.6668C36 14.4252 38.2417 16.6668 41 16.6668H51.8333C54.1333 16.6668 56 14.8002 56 12.5002C56 10.3002 54.2917 8.51683 52.1333 8.36683Z" fill="#0984C0"/>
<path d="M5.63337 4.0335L4.13337 2.54183L2.95837 3.71683L4.45004 5.2085L5.63337 4.0335ZM3.33337 8.75016H0.833374V10.4168H3.33337V8.75016ZM10.8334 0.458496H9.16671V2.91683H10.8334V0.458496ZM17.0417 3.71683L15.8667 2.54183L14.375 4.0335L15.55 5.2085L17.0417 3.71683ZM14.3667 15.1335L15.8584 16.6335L17.0334 15.4585L15.5334 13.9668L14.3667 15.1335ZM16.6667 8.75016V10.4168H19.1667V8.75016H16.6667ZM10 4.5835C7.24171 4.5835 5.00004 6.82516 5.00004 9.5835C5.00004 12.3418 7.24171 14.5835 10 14.5835C12.7584 14.5835 15 12.3418 15 9.5835C15 6.82516 12.7584 4.5835 10 4.5835ZM9.16671 18.7085H10.8334V16.2502H9.16671V18.7085ZM2.95837 15.4502L4.13337 16.6252L5.62504 15.1252L4.45004 13.9502L2.95837 15.4502Z" fill="#0984C0"/>
<path d="M82.9392 12.1333L84.1308 10.9416L89.4975 16.3108L88.3083 17.4999L82.9392 12.1333ZM86.5167 7.35828L88.9 4.97494C85.6083 1.68328 80.275 1.67494 76.9833 4.95828C80.2583 3.87494 83.9083 4.74994 86.5167 7.35828ZM76.9583 4.98328C73.675 8.27494 73.6833 13.6083 76.975 16.8999L79.3583 14.5166C76.75 11.9083 75.875 8.25828 76.9583 4.98328ZM76.975 4.96661L76.9667 4.97494C76.65 7.48328 77.9417 10.7083 80.55 13.3249L85.325 8.54994C82.7167 5.94161 79.4833 4.64994 76.975 4.96661Z" fill="#0984C0"/>
</svg>
